<svg width="38" height="38" viewBox="0 0 38 38" fill="none" xmlns="http://www.w3.org/2000/svg">
<path d="M34.7429 6.24268H3.2572C1.60823 6.24268 0.271484 7.57943 0.271484 9.22839V28.7712C0.271484 30.4202 1.60823 31.757 3.2572 31.757H34.7429C36.3919 31.757 37.7286 30.4202 37.7286 28.7712V9.22839C37.7286 7.57943 36.3919 6.24268 34.7429 6.24268Z" fill="white" stroke="#D9D9D9" stroke-width="0.542857"/>
<path d="M23.0062 16.2607C23.0062 17.1214 23.0151 17.846 23.0047 18.5705C22.9957 19.1734 23.1838 19.7095 23.5689 20.1819C23.6615 20.295 23.751 20.408 23.8302 20.5268C23.9182 20.6543 23.9541 20.7935 23.8794 20.9427C23.8481 21.0079 23.7869 21.0442 23.7316 21.0905C23.2405 21.4832 22.7539 21.8803 22.2732 22.2875C22.1418 22.3976 22.0045 22.4802 21.8209 22.4541C21.7418 22.4425 21.6731 22.4237 21.6104 22.3715C21.2238 22.0687 20.8924 21.7209 20.6222 21.3151C20.5819 21.2557 20.5341 21.2021 20.4968 21.1398C20.4595 21.0833 20.4251 21.0833 20.3759 21.1282C20.1654 21.3267 19.949 21.5166 19.7176 21.6919C19.1399 22.1368 18.4905 22.4107 17.7546 22.4875C17.3067 22.5324 16.8589 22.5527 16.4111 22.4991C15.5602 22.3947 14.8362 22.0571 14.3242 21.3673C14.0137 20.9485 13.851 20.4732 13.7823 19.966C13.7092 19.4197 13.7331 18.8806 13.8838 18.3488C14.1092 17.5504 14.5959 16.9287 15.299 16.465C15.805 16.1332 16.3693 15.9346 16.9574 15.7984C17.5157 15.6694 18.0785 15.5912 18.6487 15.5318C19.0787 15.4854 19.5086 15.4419 19.9385 15.4014C19.9997 15.3941 20.0266 15.3724 20.0266 15.3144C20.0221 14.9724 20.0415 14.629 19.9967 14.2884C19.9131 13.6842 19.5728 13.306 18.9578 13.1813C18.3592 13.0611 17.8023 13.1639 17.3232 13.5523C17.0769 13.7523 16.9365 14.016 16.8574 14.316C16.847 14.3551 16.8395 14.3957 16.8246 14.4363C16.741 14.6333 16.6201 14.7362 16.3887 14.7101C16.0498 14.6754 15.7095 14.642 15.3721 14.6072C15.0721 14.5768 14.772 14.5449 14.4735 14.5145C14.2854 14.4942 14.154 14.4015 14.1107 14.2493C14.0839 14.1566 14.1122 14.0624 14.1331 13.9711C14.3063 13.2161 14.675 12.5756 15.284 12.0728C15.7961 11.6496 16.3917 11.3859 17.0366 11.2207C17.7277 11.0425 18.4368 10.9758 19.1488 11.0077C19.9325 11.0439 20.6938 11.1917 21.3984 11.5467C22.012 11.8554 22.4807 12.3017 22.7464 12.9292C22.8987 13.2915 22.9703 13.674 22.9927 14.0653C23.0285 14.8449 22.9942 15.6245 23.0062 16.2607ZM20.0221 17.8243C20.0221 17.5243 20.0206 17.3171 20.0236 17.1098C20.0251 17.0272 19.9922 16.9997 19.9131 17.0026C19.7892 17.0099 19.6698 17.0113 19.5459 17.0171C19.0712 17.0388 18.601 17.0968 18.1487 17.2548C17.7471 17.3939 17.3874 17.5996 17.153 17.9561C16.7992 18.4894 16.7604 19.069 16.944 19.6661C17.0291 19.9399 17.1933 20.1732 17.4501 20.3167C17.9471 20.5993 18.4487 20.5602 18.9309 20.2805C19.4339 19.9863 19.7146 19.5269 19.8818 18.9937C20.0102 18.5821 20.0176 18.1561 20.0221 17.8243Z" fill="black"/>
<path d="M18.4841 26.2321C17.9631 26.2017 17.4631 26.193 16.966 26.1423C16.4928 26.0915 16.0255 26.0292 15.5598 25.935C15.0075 25.8278 14.4626 25.6858 13.9282 25.5134C13.1908 25.2815 12.4787 24.9873 11.792 24.6366C11.3561 24.4135 10.9322 24.1671 10.5247 23.8976C10.0425 23.5745 9.57526 23.2354 9.13788 22.8586C9.08564 22.8166 9.03488 22.7688 9.01249 22.7035C8.97517 22.6021 9.02294 22.5282 9.13639 22.5253C9.20356 22.5195 9.26626 22.5427 9.32299 22.5731C9.7529 22.8021 10.1903 23.0238 10.6351 23.2209C11.1158 23.4353 11.6084 23.631 12.1085 23.8092C12.4981 23.9454 12.8922 24.0672 13.2908 24.1831C13.764 24.3193 14.2447 24.4294 14.7268 24.5309C15.0866 24.6077 15.4523 24.6613 15.815 24.7178C16.2778 24.7917 16.7436 24.8395 17.2093 24.8729C17.5183 24.896 17.8273 24.912 18.1393 24.9207C18.605 24.9323 19.0723 24.9236 19.5395 24.912C19.9291 24.9033 20.3172 24.8613 20.7024 24.8221C20.995 24.7931 21.289 24.7569 21.5801 24.7149C21.8608 24.67 22.1399 24.6294 22.4176 24.5671C22.7057 24.5048 22.9953 24.4483 23.2789 24.3773C23.6864 24.2758 24.0895 24.1657 24.4881 24.0353C24.8851 23.9077 25.2747 23.7686 25.6644 23.6223C25.7793 23.5774 25.8898 23.5179 26.0181 23.5179C26.0958 23.5179 26.1794 23.5063 26.248 23.5542C26.3585 23.6281 26.3794 23.7715 26.3048 23.8933C26.2779 23.9324 26.2436 23.9701 26.2018 24.0005C25.8928 24.2208 25.5643 24.4077 25.23 24.5917C24.597 24.9337 23.9283 25.2032 23.2491 25.4409C22.7654 25.6075 22.2698 25.738 21.7682 25.851C21.3831 25.9394 20.995 26.0089 20.6083 26.0684C20.2351 26.1278 19.8605 26.1669 19.4813 26.1872C19.1409 26.1973 18.8036 26.2147 18.4841 26.2321Z" fill="#F7A41B"/>
<path d="M26.1184 22.853C25.8273 22.8646 25.5332 22.8863 25.2436 22.9095C25.0287 22.9269 24.8152 22.966 24.5988 22.9544C24.5585 22.9515 24.5062 22.9602 24.4883 22.9095C24.4704 22.8617 24.4838 22.8139 24.5226 22.7733C24.5838 22.7052 24.6629 22.6661 24.7421 22.6182C25.0063 22.4661 25.2944 22.3661 25.5929 22.2922C25.9826 22.1994 26.3811 22.156 26.7812 22.1647C27.1215 22.1705 27.4604 22.2038 27.7888 22.3096C27.95 22.3632 28.0127 22.4675 28.0217 22.6182C28.0471 22.9747 27.9814 23.3225 27.8814 23.6601C27.7515 24.0963 27.5649 24.5035 27.2947 24.8745C27.1484 25.073 26.9857 25.2541 26.7901 25.4092C26.7663 25.4295 26.7394 25.4454 26.7125 25.457C26.6588 25.4773 26.5961 25.4903 26.5498 25.4541C26.502 25.4179 26.514 25.3556 26.5319 25.3063C26.5841 25.1672 26.6424 25.0339 26.6946 24.8962C26.8513 24.5108 26.9976 24.1181 27.0962 23.7138C27.129 23.5746 27.1484 23.4312 27.1439 23.2863C27.1395 23.0399 27.023 22.966 26.8125 22.9153C26.5871 22.8646 26.3528 22.8501 26.1184 22.853Z" fill="#F7A41B"/>
</svg>
