<svg width="36" height="22" viewBox="0 0 36 22" fill="none" xmlns="http://www.w3.org/2000/svg">
<path d="M22.2571 8.83888C22.2571 9.62792 22.2656 10.2921 22.2557 10.9563C22.2472 11.5088 22.4254 12.0003 22.7903 12.4334C22.8779 12.537 22.9628 12.6406 23.0378 12.7495C23.1212 12.8664 23.1551 12.9939 23.0844 13.1308C23.0547 13.1905 22.9967 13.2237 22.9444 13.2662C22.4791 13.6262 22.0181 13.9902 21.5627 14.3635C21.4383 14.4644 21.3082 14.5401 21.1342 14.5162C21.0593 14.5056 20.9942 14.4883 20.9348 14.4405C20.5686 14.1629 20.2546 13.8441 19.9986 13.4721C19.9604 13.4177 19.9152 13.3685 19.8798 13.3114C19.8445 13.2596 19.8119 13.2596 19.7653 13.3008C19.5659 13.4828 19.3608 13.6568 19.1416 13.8175C18.5943 14.2253 17.9791 14.4764 17.2819 14.5468C16.8577 14.5879 16.4334 14.6065 16.0092 14.5574C15.2031 14.4618 14.5172 14.1523 14.0321 13.52C13.7379 13.1361 13.5838 12.7004 13.5187 12.2355C13.4494 11.7347 13.4721 11.2405 13.6149 10.753C13.8285 10.0211 14.2895 9.45125 14.9556 9.02618C15.435 8.72199 15.9696 8.54001 16.5268 8.41514C17.0557 8.29692 17.5888 8.22519 18.129 8.17073C18.5363 8.12822 18.9436 8.08837 19.3509 8.05118C19.4089 8.04454 19.4344 8.02461 19.4344 7.97148C19.4301 7.65799 19.4485 7.34317 19.4061 7.03101C19.3269 6.47709 19.0044 6.13039 18.4218 6.01616C17.8547 5.9059 17.3272 6.00022 16.8732 6.35621C16.6399 6.53952 16.507 6.78128 16.432 7.05625C16.4221 7.09211 16.415 7.12931 16.4009 7.1665C16.3217 7.34716 16.2071 7.44147 15.9879 7.41756C15.6669 7.38568 15.3445 7.35513 15.0249 7.32325C14.7406 7.29535 14.4564 7.26613 14.1735 7.23823C13.9953 7.21963 13.8709 7.13462 13.8299 6.99515C13.8044 6.91013 13.8313 6.82379 13.8511 6.7401C14.0151 6.04804 14.3644 5.46091 14.9414 4.99997C15.4265 4.6121 15.9908 4.37034 16.6017 4.21891C17.2565 4.05552 17.9282 3.99442 18.6028 4.02364C19.3453 4.05685 20.0665 4.19234 20.734 4.51779C21.3153 4.80072 21.7593 5.20985 22.011 5.78502C22.1553 6.11711 22.2232 6.46779 22.2444 6.82645C22.2783 7.54109 22.2458 8.25574 22.2571 8.83888ZM19.4301 10.2722C19.4301 9.9972 19.4287 9.80724 19.4315 9.61729C19.4329 9.54158 19.4018 9.51634 19.3269 9.519C19.2095 9.52564 19.0964 9.52697 18.979 9.53228C18.5293 9.5522 18.0838 9.60534 17.6553 9.75013C17.2749 9.87765 16.934 10.0663 16.712 10.393C16.3768 10.8819 16.3401 11.4132 16.514 11.9605C16.5946 12.2115 16.7502 12.4254 16.9934 12.5569C17.4644 12.8159 17.9395 12.7801 18.3963 12.5237C18.8729 12.2541 19.1388 11.833 19.2972 11.3441C19.4188 10.9669 19.4259 10.5764 19.4301 10.2722Z" fill="black"/>
<path d="M17.9732 17.9793C17.4797 17.9514 17.0059 17.9434 16.535 17.8969C16.0867 17.8504 15.644 17.7933 15.2028 17.707C14.6796 17.6087 14.1634 17.4785 13.6571 17.3204C12.9585 17.1079 12.2839 16.8382 11.6334 16.5168C11.2204 16.3122 10.8188 16.0864 10.4327 15.8393C9.97591 15.5431 9.53327 15.2323 9.11891 14.8869C9.06941 14.8484 9.02133 14.8045 9.00011 14.7448C8.96476 14.6518 9.01001 14.584 9.11749 14.5814C9.18113 14.5761 9.24053 14.5973 9.29427 14.6252C9.70156 14.8351 10.1159 15.0383 10.5374 15.219C10.9927 15.4156 11.4594 15.5949 11.9332 15.7583C12.3023 15.8832 12.6756 15.9947 13.0532 16.101C13.5015 16.2259 13.9569 16.3268 14.4137 16.4198C14.7545 16.4902 15.101 16.5394 15.4446 16.5912C15.883 16.6589 16.3243 16.7028 16.7655 16.7333C17.0583 16.7546 17.351 16.7692 17.6466 16.7771C18.0878 16.7878 18.5304 16.7798 18.9731 16.7692C19.3422 16.7612 19.7099 16.7227 20.0747 16.6868C20.3519 16.6602 20.6305 16.627 20.9063 16.5885C21.1722 16.5473 21.4366 16.5101 21.6997 16.453C21.9726 16.3959 22.247 16.3441 22.5157 16.279C22.9017 16.186 23.2836 16.0851 23.6612 15.9655C24.0374 15.8486 24.4065 15.7211 24.7756 15.5869C24.8845 15.5458 24.9891 15.4913 25.1107 15.4913C25.1843 15.4913 25.2635 15.4807 25.3285 15.5245C25.4332 15.5923 25.453 15.7238 25.3823 15.8353C25.3568 15.8712 25.3243 15.9057 25.2847 15.9336C24.9919 16.1355 24.6808 16.3069 24.364 16.4756C23.7644 16.7891 23.1308 17.0362 22.4874 17.254C22.0292 17.4068 21.5597 17.5263 21.0845 17.6299C20.7196 17.711 20.3519 17.7747 19.9857 17.8292C19.6321 17.8836 19.2771 17.9195 18.9179 17.9381C18.5955 17.9474 18.2759 17.9633 17.9732 17.9793Z" fill="#F7A41B"/>
<path d="M25.2055 14.882C24.9298 14.8926 24.6512 14.9125 24.3768 14.9338C24.1732 14.9497 23.9709 14.9856 23.7659 14.9749C23.7277 14.9723 23.6782 14.9803 23.6612 14.9338C23.6442 14.8899 23.657 14.8461 23.6937 14.8089C23.7517 14.7465 23.8267 14.7106 23.9016 14.6668C24.1519 14.5273 24.4249 14.4356 24.7077 14.3679C25.0768 14.2829 25.4544 14.243 25.8334 14.251C26.1559 14.2563 26.4769 14.2869 26.788 14.3838C26.9408 14.433 27.0002 14.5286 27.0086 14.6668C27.0327 14.9935 26.9705 15.3123 26.8757 15.6218C26.7527 16.0217 26.5759 16.3949 26.3199 16.735C26.1813 16.917 26.0272 17.083 25.8419 17.2252C25.8193 17.2438 25.7938 17.2584 25.7684 17.269C25.7175 17.2876 25.6581 17.2995 25.6142 17.2663C25.569 17.2331 25.5803 17.176 25.5973 17.1308C25.6468 17.0033 25.7019 16.8811 25.7514 16.7549C25.8999 16.4016 26.0385 16.0416 26.1318 15.671C26.1629 15.5435 26.1813 15.412 26.1771 15.2791C26.1728 15.0533 26.0625 14.9856 25.8631 14.9391C25.6496 14.8926 25.4276 14.8793 25.2055 14.882Z" fill="#F7A41B"/>
<path d="M31.954 22H4.04745C1.81584 22 0 20.2931 0 18.197V3.80171C0 1.70559 1.81584 0 4.04745 0H31.9525C34.1842 0 36 1.70559 36 3.80171V18.197C36.0028 20.2931 34.187 22 31.954 22ZM4.04745 0.397174C2.04918 0.397174 0.424261 1.92344 0.424261 3.80039V18.197C0.424261 20.0726 2.04918 21.5988 4.04745 21.5988H31.9525C33.9508 21.5988 35.5757 20.0739 35.5757 18.197V3.80039C35.5757 1.92344 33.9508 0.397174 31.9525 0.397174H4.04745Z" fill="#969696"/>
</svg>
