<svg width="38" height="38" viewBox="0 0 38 38" fill="none" xmlns="http://www.w3.org/2000/svg">
<path d="M23.4937 16.6425C23.4937 17.5033 23.5027 18.2278 23.4922 18.9524C23.4833 19.5552 23.6713 20.0914 24.0565 20.5638C24.149 20.6768 24.2386 20.7898 24.3177 20.9087C24.4058 21.0362 24.4416 21.1753 24.367 21.3246C24.3356 21.3898 24.2744 21.426 24.2192 21.4724C23.7281 21.8651 23.2414 22.2621 22.7607 22.6693C22.6294 22.7795 22.492 22.862 22.3084 22.836C22.2293 22.8244 22.1607 22.8055 22.098 22.7534C21.7113 22.4505 21.3799 22.1027 21.1097 21.697C21.0694 21.6376 21.0217 21.5839 20.9844 21.5216C20.947 21.4651 20.9127 21.4651 20.8634 21.51C20.653 21.7086 20.4365 21.8984 20.2051 22.0737C19.6274 22.5186 18.9781 22.7925 18.2421 22.8693C17.7943 22.9142 17.3465 22.9345 16.8986 22.8809C16.0478 22.7766 15.3238 22.4389 14.8117 21.7491C14.5012 21.3303 14.3385 20.855 14.2699 20.3479C14.1967 19.8015 14.2206 19.2625 14.3714 18.7307C14.5968 17.9322 15.0834 17.3105 15.7865 16.8468C16.2926 16.515 16.8568 16.3165 17.445 16.1802C18.0033 16.0513 18.5661 15.973 19.1363 15.9136C19.5662 15.8672 19.9961 15.8238 20.4261 15.7832C20.4873 15.7759 20.5141 15.7542 20.5141 15.6962C20.5096 15.3543 20.5291 15.0108 20.4843 14.6703C20.4007 14.066 20.0603 13.6878 19.4453 13.5632C18.8467 13.4429 18.2899 13.5458 17.8107 13.9341C17.5644 14.1341 17.4241 14.3979 17.345 14.6978C17.3345 14.7369 17.3271 14.7775 17.3121 14.8181C17.2285 15.0152 17.1076 15.1181 16.8762 15.092C16.5374 15.0572 16.197 15.0239 15.8597 14.9891C15.5596 14.9587 15.2596 14.9268 14.961 14.8963C14.7729 14.8761 14.6416 14.7833 14.5983 14.6312C14.5714 14.5384 14.5998 14.4442 14.6207 14.3529C14.7938 13.5979 15.1625 12.9574 15.7716 12.4546C16.2836 12.0315 16.8792 11.7677 17.5241 11.6025C18.2153 11.4243 18.9243 11.3576 19.6364 11.3895C20.4201 11.4257 21.1814 11.5736 21.886 11.9286C22.4995 12.2372 22.9682 12.6836 23.234 13.311C23.3862 13.6733 23.4579 14.0559 23.4803 14.4471C23.5161 15.2267 23.4818 16.0064 23.4937 16.6425ZM20.5096 18.2061C20.5096 17.9061 20.5082 17.6989 20.5111 17.4917C20.5126 17.4091 20.4798 17.3815 20.4007 17.3844C20.2768 17.3917 20.1574 17.3931 20.0335 17.3989C19.5588 17.4207 19.0885 17.4786 18.6362 17.6366C18.2347 17.7757 17.8749 17.9815 17.6405 18.338C17.2868 18.8712 17.2479 19.4509 17.4316 20.0479C17.5166 20.3218 17.6808 20.5551 17.9376 20.6985C18.4347 20.9811 18.9363 20.942 19.4184 20.6623C19.9215 20.3681 20.2021 19.9088 20.3693 19.3755C20.4977 18.964 20.5052 18.5379 20.5096 18.2061Z" fill="black"/>
<path d="M18.9717 26.6139C18.4507 26.5835 17.9506 26.5748 17.4535 26.5241C16.9803 26.4734 16.5131 26.4111 16.0473 26.3169C15.495 26.2096 14.9501 26.0676 14.4157 25.8952C13.6783 25.6633 12.9663 25.3692 12.2796 25.0185C11.8437 24.7953 11.4197 24.549 11.0122 24.2794C10.5301 23.9563 10.0628 23.6172 9.62543 23.2404C9.57318 23.1984 9.52243 23.1506 9.50004 23.0854C9.46272 22.9839 9.51049 22.91 9.62394 22.9071C9.69111 22.9013 9.75381 22.9245 9.81053 22.955C10.2405 23.1839 10.6778 23.4056 11.1227 23.6027C11.6034 23.8172 12.096 24.0128 12.596 24.191C12.9857 24.3273 13.3798 24.449 13.7783 24.5649C14.2515 24.7011 14.7322 24.8113 15.2144 24.9127C15.5741 24.9895 15.9399 25.0431 16.3026 25.0996C16.7654 25.1735 17.2311 25.2214 17.6968 25.2547C18.0059 25.2779 18.3149 25.2938 18.6268 25.3025C19.0926 25.3141 19.5598 25.3054 20.0271 25.2938C20.4167 25.2851 20.8048 25.2431 21.1899 25.204C21.4825 25.175 21.7766 25.1388 22.0677 25.0967C22.3483 25.0518 22.6275 25.0112 22.9051 24.9489C23.1932 24.8866 23.4828 24.8301 23.7665 24.7591C24.174 24.6577 24.577 24.5475 24.9756 24.4171C25.3727 24.2896 25.7623 24.1505 26.1519 24.0041C26.2668 23.9592 26.3773 23.8998 26.5057 23.8998C26.5833 23.8998 26.6669 23.8882 26.7356 23.936C26.846 24.0099 26.8669 24.1534 26.7923 24.2751C26.7654 24.3142 26.7311 24.3519 26.6893 24.3823C26.3803 24.6026 26.0519 24.7895 25.7175 24.9736C25.0846 25.3156 24.4158 25.5851 23.7366 25.8227C23.2529 25.9894 22.7573 26.1198 22.2558 26.2328C21.8706 26.3212 21.4825 26.3908 21.0959 26.4502C20.7227 26.5096 20.348 26.5487 19.9688 26.569C19.6285 26.5792 19.2911 26.5966 18.9717 26.6139Z" fill="#F7A41B"/>
<path d="M26.6059 23.2348C26.3149 23.2464 26.0208 23.2682 25.7312 23.2913C25.5162 23.3087 25.3028 23.3479 25.0863 23.3363C25.046 23.3334 24.9938 23.3421 24.9758 23.2913C24.9579 23.2435 24.9714 23.1957 25.0102 23.1551C25.0714 23.087 25.1505 23.0479 25.2296 23.0001C25.4938 22.8479 25.7819 22.7479 26.0805 22.674C26.4701 22.5813 26.8687 22.5378 27.2687 22.5465C27.6091 22.5523 27.9479 22.5856 28.2764 22.6914C28.4376 22.745 28.5003 22.8494 28.5092 23.0001C28.5346 23.3565 28.4689 23.7043 28.3689 24.042C28.239 24.4782 28.0524 24.8854 27.7822 25.2563C27.636 25.4548 27.4732 25.636 27.2777 25.791C27.2538 25.8113 27.2269 25.8273 27.2001 25.8389C27.1463 25.8591 27.0836 25.8722 27.0374 25.836C26.9896 25.7997 27.0015 25.7374 27.0194 25.6882C27.0717 25.549 27.1299 25.4157 27.1822 25.2781C27.3389 24.8926 27.4852 24.4999 27.5837 24.0956C27.6166 23.9565 27.636 23.813 27.6315 23.6681C27.627 23.4218 27.5106 23.3479 27.3001 23.2971C27.0747 23.2464 26.8403 23.2319 26.6059 23.2348Z" fill="#F7A41B"/>
<path d="M33.7292 31H4.27231C1.91672 31 0 29.1379 0 26.8512V11.1473C0 8.86064 1.91672 7 4.27231 7H33.7277C36.0833 7 38 8.86064 38 11.1473V26.8512C38.003 29.1379 36.0863 31 33.7292 31ZM4.27231 7.43328C2.16303 7.43328 0.447831 9.0983 0.447831 11.1459V26.8512C0.447831 28.8974 2.16303 30.5624 4.27231 30.5624H33.7277C35.837 30.5624 37.5522 28.8988 37.5522 26.8512V11.1459C37.5522 9.0983 35.837 7.43328 33.7277 7.43328H4.27231Z" fill="#D9D9D9"/>
</svg>
