<svg width="36" height="22" viewBox="0 0 36 22" fill="none" xmlns="http://www.w3.org/2000/svg">
<path d="M32.0352 21.9008H3.96475C1.83229 21.9008 0.106689 20.2721 0.106689 18.2639V3.7362C0.106689 1.72669 1.83514 0.100586 3.96475 0.100586H32.0352C34.1677 0.100586 35.8933 1.72937 35.8933 3.7362V18.2639C35.8933 20.2747 34.1663 21.9008 32.0352 21.9008Z" fill="#016BB6"/>
<path d="M32.0352 22H3.96476C1.77682 22 0 20.3243 0 18.2638V3.73615C0 1.67436 1.77966 0 3.96476 0H32.0352C34.2232 0 36 1.67704 36 3.73615V18.2638C36.0014 20.327 34.2218 22 32.0352 22ZM3.96476 0.198402C1.89489 0.198402 0.21339 1.78563 0.21339 3.73347V18.2625C0.21339 20.213 1.89774 21.7976 3.96476 21.7976H32.0352C34.1051 21.7976 35.7866 20.2103 35.7866 18.2625V3.73481C35.7866 1.78429 34.1023 0.199744 32.0352 0.199744H3.96476V0.198402Z" fill="#969696"/>
<path d="M25.594 12.8853C25.318 13.1575 25.0619 13.4095 24.8144 13.6628C24.7191 13.762 24.6167 13.817 24.463 13.817C19.8325 13.8117 15.202 13.8143 10.5714 13.8116C10.5515 13.8116 10.533 13.809 10.4818 13.7982C10.3495 13.5073 10.2087 13.2017 10.0636 12.8867C9.74777 12.8867 9.44049 12.8867 9.1261 12.8867C8.98669 13.1936 8.85297 13.4939 8.7164 13.7982C7.63096 13.7982 6.55122 13.7982 5.43164 13.7982C6.35632 11.7633 7.26678 9.75778 8.17439 7.76034C10.3367 7.76034 12.4734 7.76034 14.6301 7.76034C14.8691 8.24429 15.1038 8.72287 15.3684 9.26311C15.6131 8.72957 15.835 8.24294 16.0641 7.74425C16.1437 7.74425 16.2092 7.74425 16.2746 7.74425C18.9974 7.74425 21.7203 7.74694 24.4417 7.74023C24.6522 7.74023 24.8059 7.78313 24.9453 7.944C25.1587 8.19066 25.3977 8.41856 25.6523 8.67863C25.9226 8.40783 26.19 8.15045 26.4475 7.88502C26.5372 7.79252 26.631 7.74023 26.7719 7.74023C27.9925 7.74426 29.213 7.74157 30.4336 7.74425C30.4592 7.74425 30.4848 7.75498 30.5631 7.77107C29.5801 8.78721 28.6198 9.77923 27.6382 10.794C28.5985 11.7887 29.5473 12.7754 30.5488 13.8143C30.2942 13.8143 30.115 13.8143 29.9357 13.8143C28.8702 13.8143 27.8033 13.809 26.7392 13.817C26.5585 13.817 26.4319 13.7728 26.3152 13.6387C26.0933 13.3907 25.8515 13.1521 25.594 12.8853Z" fill="#FBFDFD"/>
<path d="M13.3725 9.98164C13.3725 10.9576 13.3725 11.9335 13.3725 12.9282C12.6114 12.9282 11.8702 12.9282 11.0963 12.9282C10.9654 12.6427 10.8246 12.337 10.6823 12.0247C9.95824 12.0247 9.24411 12.0247 8.51005 12.0247C8.37633 12.3209 8.23976 12.6212 8.09608 12.9336C7.6821 12.9336 7.26813 12.9336 6.81006 12.9336C7.47583 11.4817 8.13022 10.05 8.78888 8.61963C9.35222 8.61963 9.89138 8.61963 10.4533 8.61963C11.0081 9.83552 11.5672 11.0581 12.1234 12.282C12.1433 12.2767 12.159 12.274 12.1789 12.2686C12.1789 11.0608 12.1789 9.85161 12.1789 8.62767C12.8105 8.62767 13.4151 8.62767 14.0439 8.62767C14.4863 9.52987 14.9316 10.4401 15.4053 11.4067C15.8406 10.4468 16.2518 9.53523 16.6643 8.62633C17.2874 8.62633 17.8934 8.62633 18.5151 8.62633C18.5151 10.0715 18.5151 11.5018 18.5151 12.9497C18.1068 12.9497 17.717 12.9497 17.3031 12.9497C17.3031 11.9469 17.3031 10.967 17.3031 9.98298C17.2831 9.97896 17.2675 9.97226 17.2476 9.96958C16.7795 10.9616 16.3129 11.955 15.8421 12.9523C15.5063 12.9523 15.1905 12.9523 14.8448 12.9523C14.3796 11.9684 13.9073 10.9723 13.4365 9.97762C13.4166 9.97762 13.3938 9.9803 13.3725 9.98164Z" fill="#016BB6"/>
<path d="M19.4001 12.9509C19.4001 11.495 19.4001 10.0633 19.4001 8.61951C21.0489 8.61951 22.6849 8.61951 24.3251 8.61951C24.7491 9.06189 25.1773 9.50964 25.6225 9.97347C26.0764 9.515 26.5145 9.06993 26.9626 8.61816C27.442 8.61816 27.9229 8.61816 28.472 8.61816C27.755 9.35816 27.0693 10.066 26.368 10.7926C27.0551 11.5031 27.7337 12.2042 28.4635 12.9616C27.9257 12.9616 27.4648 12.9616 27.0039 12.9616C26.8801 12.9616 26.8232 12.8704 26.7521 12.794C26.3808 12.4012 26.0081 12.0058 25.6126 11.5889C25.21 11.9977 24.8216 12.3878 24.4375 12.7806C24.3365 12.8825 24.2412 12.967 24.0719 12.967C22.5611 12.9616 21.0503 12.9643 19.5367 12.9643C19.494 12.9643 19.457 12.9562 19.4001 12.9509Z" fill="#036AB4"/>
<path d="M8.95947 10.9957C9.16859 10.5171 9.36918 10.0573 9.59537 9.54248C9.82014 10.0479 10.0221 10.5037 10.2384 10.9957C9.81161 10.9957 9.40901 10.9957 8.95947 10.9957Z" fill="#F7FCFC"/>
<path d="M23.0033 10.2647C22.1925 10.2647 21.4029 10.2647 20.602 10.2647C20.5337 10.0422 20.5664 9.83841 20.5721 9.60247C21.4001 9.60247 22.2181 9.60247 23.0503 9.60247C23.0503 9.38128 23.0503 9.19092 23.0503 9.00324C23.0702 8.99118 23.0887 8.97911 23.1086 8.96973C23.6734 9.56628 24.2396 10.1668 24.8186 10.7781C24.2467 11.3613 23.689 11.9297 23.1129 12.5155C23.0147 12.3265 23.1043 12.1469 23.0218 11.9632C22.2223 11.9632 21.4129 11.9632 20.5977 11.9632C20.5579 11.7098 20.5736 11.4833 20.5935 11.242C21.4015 11.242 22.1939 11.242 23.0062 11.242C23.0033 10.9149 23.0033 10.6106 23.0033 10.2647Z" fill="#FBFDFD"/>
</svg>
