<svg width="38" height="38" viewBox="0 0 38 38" fill="none" xmlns="http://www.w3.org/2000/svg">
<path d="M33.3345 31.3951H4.12561C1.90667 31.3951 0.111084 29.5064 0.111084 27.1779V10.3324C0.111084 8.00224 1.90963 6.1167 4.12561 6.1167H33.3345C35.5535 6.1167 37.349 8.00535 37.349 10.3324V27.1779C37.349 29.5095 35.552 31.3951 33.3345 31.3951Z" fill="#016BB6"/>
<path d="M33.3345 31.51H4.12555C1.84888 31.51 0 29.5669 0 27.1778V10.3322C0 7.9415 1.85184 6 4.12555 6H33.3345C35.6111 6 37.46 7.94461 37.46 10.3322V27.1778C37.4615 29.57 35.6096 31.51 33.3345 31.51ZM4.12555 6.23006C1.97174 6.23006 0.222044 8.07052 0.222044 10.3291V27.1762C0.222044 29.4379 1.9747 31.2753 4.12555 31.2753H33.3345C35.4883 31.2753 37.238 29.4348 37.238 27.1762V10.3307C37.238 8.06897 35.4853 6.23161 33.3345 6.23161H4.12555V6.23006Z" fill="#969696"/>
<path d="M26.6319 20.9411C26.3447 21.2566 26.0783 21.5488 25.8207 21.8426C25.7215 21.9577 25.6149 22.0214 25.4551 22.0214C20.6367 22.0152 15.8184 22.0183 11.0001 22.0152C10.9794 22.0152 10.9601 22.0121 10.9069 21.9996C10.7692 21.6623 10.6226 21.3079 10.4717 20.9426C10.143 20.9426 9.82329 20.9426 9.49615 20.9426C9.35108 21.2986 9.21193 21.6468 9.06983 21.9996C7.94037 21.9996 6.81684 21.9996 5.65186 21.9996C6.61404 19.64 7.56142 17.3145 8.50584 14.9984C10.7559 14.9984 12.9792 14.9984 15.2234 14.9984C15.472 15.5596 15.7163 16.1145 15.9916 16.7409C16.2462 16.1223 16.4772 15.558 16.7155 14.9798C16.7984 14.9798 16.8665 14.9798 16.9346 14.9798C19.7678 14.9798 22.6011 14.9829 25.4329 14.9751C25.6519 14.9751 25.8118 15.0248 25.9569 15.2114C26.1789 15.4974 26.4276 15.7616 26.6926 16.0632C26.9738 15.7492 27.2521 15.4508 27.5201 15.143C27.6133 15.0357 27.711 14.9751 27.8576 14.9751C29.1276 14.9798 30.3977 14.9766 31.6678 14.9798C31.6944 14.9798 31.7211 14.9922 31.8025 15.0108C30.7796 16.1891 29.7804 17.3394 28.759 18.5161C29.7582 19.6695 30.7456 20.8136 31.7877 22.0183C31.5227 22.0183 31.3362 22.0183 31.1497 22.0183C30.041 22.0183 28.9308 22.0121 27.8235 22.0214C27.6355 22.0214 27.5038 21.9701 27.3824 21.8147C27.1515 21.5271 26.8998 21.2504 26.6319 20.9411Z" fill="#FBFDFD"/>
<path d="M13.9147 17.5739C13.9147 18.7056 13.9147 19.8372 13.9147 20.9906C13.1228 20.9906 12.3515 20.9906 11.5463 20.9906C11.4101 20.6595 11.2635 20.3051 11.1155 19.9429C10.362 19.9429 9.61894 19.9429 8.85512 19.9429C8.71597 20.2865 8.57386 20.6346 8.42435 20.9968C7.99359 20.9968 7.56283 20.9968 7.08618 20.9968C7.77895 19.3134 8.45988 17.6532 9.14525 15.9946C9.73144 15.9946 10.2925 15.9946 10.8772 15.9946C11.4545 17.4045 12.0362 18.8222 12.615 20.2414C12.6358 20.2352 12.652 20.232 12.6728 20.2258C12.6728 18.8253 12.6728 17.4232 12.6728 16.004C13.33 16.004 13.9591 16.004 14.6134 16.004C15.0738 17.0501 15.5371 18.1056 16.03 19.2263C16.483 18.1133 16.9108 17.0563 17.3401 16.0024C17.9885 16.0024 18.6191 16.0024 19.2659 16.0024C19.2659 17.6781 19.2659 19.3367 19.2659 21.0155C18.8411 21.0155 18.4355 21.0155 18.0047 21.0155C18.0047 19.8528 18.0047 18.7165 18.0047 17.5755C17.984 17.5708 17.9677 17.5631 17.947 17.56C17.46 18.7102 16.9745 19.8621 16.4845 21.0186C16.1351 21.0186 15.8065 21.0186 15.4468 21.0186C14.9628 19.8776 14.4713 18.7227 13.9813 17.5693C13.9606 17.5693 13.9369 17.5724 13.9147 17.5739Z" fill="#016BB6"/>
<path d="M20.187 21.0171C20.187 19.329 20.187 17.6689 20.187 15.9947C21.9027 15.9947 23.605 15.9947 25.3117 15.9947C25.7529 16.5077 26.1984 17.0269 26.6618 17.5647C27.134 17.0331 27.5899 16.517 28.0562 15.9932C28.555 15.9932 29.0554 15.9932 29.6268 15.9932C28.8807 16.8512 28.1672 17.672 27.4374 18.5145C28.1524 19.3383 28.8585 20.1513 29.6179 21.0296C29.0583 21.0296 28.5787 21.0296 28.0991 21.0296C27.9703 21.0296 27.9111 20.9239 27.8371 20.8353C27.4508 20.3798 27.0629 19.9212 26.6514 19.4378C26.2325 19.9119 25.8284 20.3643 25.4287 20.8197C25.3236 20.9379 25.2244 21.0358 25.0483 21.0358C23.4762 21.0296 21.9041 21.0327 20.3291 21.0327C20.2847 21.0327 20.2462 21.0233 20.187 21.0171Z" fill="#036AB4"/>
<path d="M9.32275 18.75C9.54036 18.195 9.74908 17.6618 9.98444 17.0649C10.2183 17.651 10.4285 18.1795 10.6535 18.75C10.2094 18.75 9.79052 18.75 9.32275 18.75Z" fill="#F7FCFC"/>
<path d="M23.9362 17.9025C23.0924 17.9025 22.2709 17.9025 21.4375 17.9025C21.3664 17.6444 21.4005 17.4082 21.4064 17.1346C22.2679 17.1346 23.1191 17.1346 23.9851 17.1346C23.9851 16.8781 23.9851 16.6574 23.9851 16.4397C24.0058 16.4257 24.025 16.4118 24.0457 16.4009C24.6334 17.0926 25.2226 17.789 25.825 18.4978C25.23 19.174 24.6497 19.8331 24.0502 20.5124C23.948 20.2932 24.0413 20.0849 23.9554 19.872C23.1235 19.872 22.2812 19.872 21.433 19.872C21.3916 19.5782 21.4079 19.3155 21.4286 19.0357C22.2694 19.0357 23.0939 19.0357 23.9392 19.0357C23.9362 18.6564 23.9362 18.3035 23.9362 17.9025Z" fill="#FBFDFD"/>
</svg>
