<svg width="36" height="22" viewBox="0 0 36 22" fill="none" xmlns="http://www.w3.org/2000/svg">
<path d="M31.954 22H4.04745C1.81584 22 0 20.2931 0 18.197V3.80171C0 1.70559 1.81584 0 4.04745 0H31.9525C34.1842 0 36 1.70559 36 3.80171V18.197C36.0014 20.2931 34.1856 22 31.954 22ZM4.04745 0.397174C2.04918 0.397174 0.424266 1.92344 0.424266 3.80039V18.197C0.424266 20.0726 2.04918 21.5988 4.04745 21.5988H31.9525C33.9508 21.5988 35.5757 20.0739 35.5757 18.197V3.80039C35.5757 1.92344 33.9508 0.397174 31.9525 0.397174H4.04745Z" fill="black"/>
<path d="M26.4074 16.4525C26.3565 16.434 26.3014 16.4393 26.2476 16.434C26.2052 16.4313 26.1882 16.4207 26.1882 16.3742C26.1911 16.1098 26.1911 15.8455 26.1882 15.5825C26.1882 15.5333 26.2038 15.5254 26.2505 15.5307C26.4244 15.5466 26.5984 15.5519 26.7723 15.5307C27.0551 15.4948 27.2715 15.3673 27.4214 15.1388C27.5275 14.9807 27.577 14.8014 27.6491 14.6274C27.7043 14.4919 27.6944 14.3777 27.6435 14.2435C26.9703 12.5074 26.3042 10.7712 25.6367 9.03376C25.6353 9.02579 25.6325 9.01782 25.6282 9.0125C25.6141 8.98461 25.6197 8.97398 25.6565 8.97398C25.7583 8.97664 25.863 8.97398 25.9648 8.97398C26.2632 8.97398 26.563 8.97398 26.8614 8.97398C26.8968 8.97398 26.9151 8.98195 26.925 9.01516C27.4002 10.4604 27.8754 11.903 28.3506 13.3456C28.3562 13.3668 28.352 13.4 28.3803 13.4C28.41 13.4 28.4057 13.3668 28.4114 13.3482C28.8865 11.9083 29.3617 10.467 29.8341 9.02579C29.8468 8.98727 29.8638 8.97266 29.9104 8.97266C30.2923 8.97398 30.6769 8.97398 31.0588 8.97266C31.097 8.97266 31.1125 8.97398 31.097 9.01782C30.3602 10.9532 29.6262 12.8873 28.8908 14.82C28.7663 15.1468 28.6136 15.4603 28.3944 15.7432C28.1003 16.1244 27.7029 16.3423 27.2107 16.4127C27.1131 16.426 27.0156 16.4393 26.9166 16.4433C26.9081 16.4433 26.8996 16.4406 26.8954 16.4512C26.7271 16.4525 26.5673 16.4525 26.4074 16.4525Z" fill="#010101"/>
<path d="M10.1455 6.34766C10.1582 6.54824 10.1455 6.74749 10.0846 6.94143C9.90645 7.49933 9.55431 7.91643 8.96601 8.13959C8.80479 8.20069 8.63791 8.22726 8.46113 8.22726C8.40739 8.22726 8.3975 8.20734 8.39325 8.16616C8.38053 7.97089 8.41022 7.78094 8.47952 7.60028C8.70438 7.00253 9.14137 6.60403 9.78483 6.41009C9.87817 6.38219 9.97574 6.37024 10.0733 6.35031C10.096 6.34766 10.1214 6.34766 10.1455 6.34766Z" fill="#010101"/>
<path d="M4.90305 10.7477C4.90305 10.3691 4.96387 9.98523 5.13216 9.61728C5.39096 9.05273 5.81521 8.64759 6.43888 8.44169C6.89001 8.29159 7.33689 8.3155 7.77813 8.48686C7.92803 8.54398 8.08077 8.6011 8.23633 8.65024C8.39331 8.69939 8.54887 8.70205 8.70727 8.65024C8.93071 8.57851 9.14425 8.48951 9.36911 8.42177C9.60811 8.34871 9.84994 8.2969 10.1031 8.31019C10.6688 8.33941 11.168 8.51608 11.5583 8.91857C11.6092 8.97303 11.6559 9.03015 11.7025 9.08727C11.7238 9.11383 11.7195 9.12313 11.6912 9.14173C11.431 9.30512 11.2146 9.50702 11.0506 9.76207C10.8342 10.0968 10.7564 10.4608 10.7975 10.8486C10.8738 11.5168 11.2557 11.9857 11.8821 12.2886C11.9316 12.3125 11.9416 12.3271 11.9246 12.3789C11.7591 12.8465 11.5116 13.2689 11.2033 13.6634C11.0633 13.8454 10.9191 14.0234 10.7381 14.1775C10.3859 14.4763 9.98711 14.5375 9.54588 14.3874C9.37335 14.3276 9.21072 14.2452 9.03253 14.2001C8.64645 14.0991 8.27028 14.1323 7.90258 14.2811C7.74136 14.3435 7.58015 14.4113 7.40761 14.4498C7.07669 14.5228 6.78819 14.4418 6.52656 14.2452C6.29322 14.0712 6.11503 13.8507 5.93825 13.6275C5.50126 13.067 5.20428 12.4466 5.03033 11.7732C4.9568 11.465 4.89881 11.0532 4.90305 10.7477Z" fill="black"/>
<path d="M14.2453 10.6667C14.2453 9.43797 14.2453 8.20527 14.2438 6.97655C14.2438 6.92873 14.2566 6.91943 14.3047 6.91943C15.2861 6.92076 16.269 6.91944 17.2504 6.92076C17.8317 6.92209 18.3705 7.0536 18.8471 7.37638C19.3491 7.71644 19.6574 8.18136 19.7904 8.74325C19.9261 9.31709 19.895 9.88562 19.6461 10.4316C19.3152 11.1529 18.7226 11.5859 17.9165 11.7759C17.6804 11.833 17.4399 11.8542 17.1953 11.8542C16.6423 11.8542 16.088 11.8542 15.5364 11.8542C15.4912 11.8542 15.4813 11.8622 15.4813 11.906C15.4827 12.7256 15.4813 13.5452 15.4827 14.3661C15.4827 14.41 15.4685 14.4179 15.4233 14.4179C15.0471 14.4179 14.6723 14.4179 14.2976 14.4179C14.2509 14.4179 14.2424 14.4073 14.2424 14.3661C14.2453 13.1308 14.2453 11.9007 14.2453 10.6667ZM15.4841 9.38749C15.4841 9.86702 15.4841 10.3466 15.4827 10.8261C15.4827 10.8699 15.4982 10.8779 15.5407 10.8779C15.9918 10.8752 16.4472 10.8779 16.8983 10.8752C17.1119 10.8752 17.3254 10.8566 17.5305 10.8035C18.0141 10.6773 18.3578 10.4077 18.5119 9.95071C18.6321 9.59737 18.6321 9.23872 18.5331 8.88405C18.4228 8.4975 18.1697 8.21855 17.7822 8.05517C17.5276 7.94757 17.2575 7.90374 16.9803 7.90108C16.4938 7.89709 16.0102 7.89975 15.5251 7.89709C15.4841 7.89709 15.4827 7.91303 15.4827 7.94359C15.4841 8.42445 15.4841 8.9053 15.4841 9.38749Z" fill="#010101"/>
<path d="M25.1273 12.4605C25.1273 13.0967 25.1273 13.729 25.1301 14.3626C25.1301 14.4091 25.1146 14.4171 25.0707 14.4171C24.7243 14.4145 24.3806 14.4145 24.0355 14.4171C23.9889 14.4171 23.9804 14.4012 23.9804 14.3626C23.9818 14.093 23.9818 13.826 23.9804 13.5537C23.9804 13.5431 23.9903 13.5231 23.9677 13.5178C23.9507 13.5152 23.9464 13.5338 23.9394 13.5444C23.6806 13.9721 23.2888 14.2391 22.7939 14.3773C22.19 14.546 21.5932 14.5101 21.0304 14.2298C20.5255 13.9788 20.2441 13.5736 20.1847 13.0396C20.1507 12.7434 20.1889 12.4538 20.3332 12.1855C20.4802 11.9158 20.7065 11.7232 20.9879 11.5824C21.2863 11.4323 21.6116 11.3539 21.9439 11.3048C22.2353 11.2636 22.5294 11.2557 22.8222 11.2371C23.1799 11.2158 23.542 11.1985 23.9026 11.1773C23.9196 11.1773 23.938 11.1799 23.9366 11.1534C23.9309 10.9594 23.9521 10.7642 23.9196 10.5716C23.8602 10.2142 23.6396 9.98709 23.2761 9.88613C22.883 9.77854 22.4884 9.77854 22.1136 9.94723C21.8407 10.0694 21.6583 10.2687 21.589 10.5516C21.5833 10.5742 21.5748 10.5822 21.5494 10.5822C21.1987 10.5822 20.8493 10.5809 20.4986 10.5822C20.459 10.5822 20.4675 10.5623 20.4689 10.541C20.5071 10.0389 20.7602 9.65234 21.1817 9.35479C21.4956 9.13694 21.852 9.0081 22.2353 8.94832C22.7472 8.86862 23.2563 8.88855 23.7541 9.03068C24.1317 9.13827 24.464 9.31627 24.7243 9.60319C24.9859 9.89277 25.1188 10.2288 25.1231 10.6034C25.1316 11.2224 25.1245 11.8401 25.1273 12.4605ZM23.9366 12.2214C23.9366 12.151 23.9351 12.0819 23.938 12.0115C23.9394 11.9703 23.9281 11.9597 23.8828 11.9623C23.4119 11.9902 22.9424 12.0168 22.4714 12.0473C22.2593 12.0633 22.0542 12.0991 21.8563 12.1828C21.4475 12.3515 21.3174 12.673 21.4065 13.013C21.4702 13.2575 21.6484 13.4129 21.8902 13.4899C22.4205 13.6666 22.9311 13.6148 23.4048 13.3265C23.6466 13.1791 23.8079 12.9666 23.8885 12.7009C23.9394 12.5402 23.9394 12.3821 23.9366 12.2214Z" fill="#010101"/>
</svg>
