<svg width="38" height="38" viewBox="0 0 38 38" fill="none" xmlns="http://www.w3.org/2000/svg">
<path d="M34.7429 6.24268H3.2572C1.60823 6.24268 0.271484 7.57943 0.271484 9.22839V28.7712C0.271484 30.4202 1.60823 31.757 3.2572 31.757H34.7429C36.3919 31.757 37.7286 30.4202 37.7286 28.7712V9.22839C37.7286 7.57943 36.3919 6.24268 34.7429 6.24268Z" fill="#00D632" stroke="#D9D9D9" stroke-width="0.542857"/>
<path d="M22.0194 16.3081C22.1763 16.4639 22.4391 16.4639 22.5842 16.3081L23.3687 15.4979C23.5334 15.3421 23.5256 15.0616 23.3491 14.8902C22.7333 14.3566 22.0115 13.9476 21.2349 13.6905L21.482 12.5025C21.5369 12.2415 21.3408 12 21.078 12H19.5561C19.36 12.0039 19.1913 12.1402 19.1521 12.3311L18.9324 13.3867C16.9085 13.488 15.1905 14.5124 15.1905 16.6041C15.1905 18.4154 16.6104 19.1905 18.1087 19.728C19.5287 20.2656 20.2778 20.4642 20.2778 21.2199C20.2778 21.9989 19.5287 22.4547 18.4225 22.4547C17.4145 22.4547 16.3593 22.1197 15.5435 21.3056C15.3827 21.1459 15.1238 21.1459 14.9669 21.3056L14.1236 22.147C13.9588 22.3144 13.9588 22.5793 14.1236 22.7468C14.7825 23.3934 15.6219 23.8608 16.5751 24.1218L16.3436 25.2358C16.2887 25.4968 16.4809 25.7344 16.7437 25.7383L18.2696 25.75C18.4696 25.75 18.6383 25.6137 18.6775 25.4189L18.8971 24.3594C21.333 24.1958 22.8156 22.8637 22.8156 20.92C22.8156 19.1282 21.3369 18.3725 19.5443 17.7571C18.5206 17.3792 17.6341 17.1183 17.6341 16.3431C17.6341 15.5875 18.4618 15.2875 19.2894 15.2875C20.3445 15.2875 21.3604 15.7199 22.0233 16.3159L22.0194 16.3081Z" fill="white"/>
</svg>
