<svg width="36" height="22" viewBox="0 0 36 22" fill="none" xmlns="http://www.w3.org/2000/svg">
<path d="M32.1177 22H3.88092C1.73583 22 0 20.3563 0 18.3297V3.66892C0 1.641 1.73869 0 3.88092 0H32.1177C34.2628 0 36 1.64371 36 3.66892V18.3297C36 20.359 34.2613 22 32.1177 22Z" fill="#00D632"/>
<path d="M21.8656 8.43307C22.0225 8.58888 22.2853 8.58888 22.4304 8.43307L23.2149 7.62288C23.3796 7.46707 23.3718 7.18661 23.1953 7.01523C22.5795 6.48159 21.8577 6.07259 21.0811 5.81551L21.3282 4.62748C21.3831 4.3665 21.187 4.125 20.9242 4.125H19.4023C19.2062 4.1289 19.0375 4.26523 18.9983 4.45609L18.7786 5.51169C16.7547 5.61296 15.0366 6.63739 15.0366 8.72911C15.0366 10.5404 16.4566 11.3155 17.9549 11.853C19.3748 12.3906 20.124 12.5892 20.124 13.3449C20.124 14.1239 19.3748 14.5797 18.2687 14.5797C17.2607 14.5797 16.2055 14.2447 15.3897 13.4306C15.2288 13.2709 14.97 13.2709 14.8131 13.4306L13.9697 14.272C13.805 14.4394 13.805 14.7043 13.9697 14.8718C14.6287 15.5184 15.4681 15.9858 16.4213 16.2468L16.1898 17.3608C16.1349 17.6218 16.3271 17.8594 16.5899 17.8633L18.1157 17.875C18.3158 17.875 18.4845 17.7387 18.5237 17.5439L18.7433 16.4844C21.1792 16.3208 22.6618 14.9887 22.6618 13.045C22.6618 11.2532 21.1831 10.4975 19.3905 9.88208C18.3668 9.50425 17.4803 9.24327 17.4803 8.46813C17.4803 7.71246 18.3079 7.41254 19.1356 7.41254C20.1907 7.41254 21.2066 7.8449 21.8695 8.44086L21.8656 8.43307Z" fill="white"/>
</svg>
