<svg width="36" height="22" viewBox="0 0 36 22" fill="none" xmlns="http://www.w3.org/2000/svg">
<path d="M31.9525 22H4.04745C1.81584 22 0 20.2931 0 18.197V3.80171C0 1.70559 1.81584 0 4.04745 0H31.9525C34.1842 0 36 1.70559 36 3.80171V18.197C36.0028 20.2931 34.187 22 31.9525 22ZM4.04745 0.397174C2.04918 0.397174 0.424266 1.92344 0.424266 3.80039V18.197C0.424266 20.0726 2.04918 21.5988 4.04745 21.5988H31.9525C33.9508 21.5988 35.5757 20.0739 35.5757 18.197V3.80039C35.5757 1.92344 33.9508 0.397174 31.9525 0.397174H4.04745Z" fill="#969696"/>
<path d="M16.3284 7.39453C16.3453 7.39453 16.3595 7.39453 16.375 7.39453C17.1953 7.39453 18.0141 7.39453 18.8358 7.39453C18.8754 7.39453 18.9121 7.40781 18.9531 7.40383C18.9913 7.39984 19.0323 7.39852 19.0705 7.40383C19.1243 7.4118 19.1766 7.41977 19.2289 7.42243C19.2529 7.44235 19.2883 7.42243 19.3123 7.44235C19.3406 7.43571 19.3675 7.44767 19.393 7.45431C19.441 7.46626 19.4905 7.47423 19.54 7.49017C19.5867 7.50611 19.6305 7.5194 19.6786 7.53401C19.738 7.54995 19.7932 7.57519 19.8483 7.59777C19.8978 7.61769 19.9445 7.6416 19.9926 7.66153C20.0166 7.67348 20.0393 7.68544 20.0633 7.70005C20.1199 7.73193 20.1793 7.75983 20.233 7.79702C20.2797 7.83023 20.3306 7.86078 20.3772 7.8993C20.431 7.94314 20.4833 7.98697 20.5385 8.03081C20.5696 8.05737 20.6021 8.07996 20.629 8.11051C20.6884 8.17427 20.7463 8.23803 20.7987 8.30578C20.8722 8.39743 20.9344 8.49706 20.9854 8.60067C21.0235 8.67505 21.0575 8.75077 21.0787 8.83047C21.0843 8.85704 21.0942 8.88095 21.1041 8.90619C21.114 8.93275 21.1098 8.95932 21.1296 8.98323C21.1239 9.02441 21.1551 9.06293 21.148 9.10411C21.1466 9.11872 21.1635 9.12935 21.1593 9.14396C21.1579 9.15591 21.1536 9.17185 21.1678 9.18248C21.1692 9.18514 21.1692 9.19178 21.1692 9.19178C21.1635 9.2396 21.1847 9.28609 21.1791 9.33524C21.1748 9.3711 21.1947 9.41096 21.1904 9.44948C21.1862 9.48933 21.1904 9.53051 21.189 9.56903C21.1876 9.61951 21.1734 9.66732 21.1777 9.71913C21.1635 9.7457 21.1734 9.77492 21.1678 9.80149C21.1508 9.87322 21.1423 9.94495 21.1183 10.0154C21.0999 10.0738 21.0872 10.1349 21.066 10.192C21.0504 10.2305 21.032 10.2677 21.0193 10.3076C20.9995 10.3607 20.9698 10.4125 20.9429 10.463C20.9047 10.5307 20.8609 10.5972 20.8142 10.6596C20.7803 10.7048 20.7449 10.7513 20.7039 10.7938C20.6742 10.827 20.6389 10.8562 20.6106 10.8907C20.5639 10.9518 20.4975 10.9957 20.4409 11.0461C20.3518 11.1232 20.257 11.1923 20.1524 11.2507C20.1015 11.2799 20.052 11.3118 19.9954 11.3331C19.9784 11.3384 19.9671 11.3556 19.9516 11.361C19.8794 11.3875 19.8087 11.4221 19.7366 11.4473C19.6857 11.4646 19.6376 11.4832 19.5867 11.4978C19.5429 11.5084 19.499 11.5217 19.4552 11.5323C19.4354 11.539 19.4099 11.5363 19.3958 11.5469C19.376 11.5589 19.3562 11.5443 19.335 11.5602C19.3194 11.5708 19.2925 11.5549 19.2756 11.5735C19.2402 11.5669 19.2077 11.5841 19.1738 11.5841C19.1228 11.5841 19.0719 11.5961 19.021 11.5921C18.9899 11.6107 18.956 11.6001 18.9234 11.6027C18.8556 11.604 18.7877 11.6027 18.7198 11.6027C18.625 11.6027 18.5303 11.5868 18.4355 11.5921C18.3408 11.5961 18.2446 11.6001 18.1513 11.5894C18.0707 11.5815 17.9915 11.5841 17.9109 11.5841C17.8331 11.5815 17.7525 11.5894 17.6733 11.5815C17.5587 11.5695 17.447 11.5775 17.3325 11.5735C17.324 11.5735 17.3155 11.5735 17.3028 11.5735C17.3028 11.5868 17.3028 11.6014 17.3028 11.6147C17.3028 12.5259 17.3028 13.4345 17.3028 14.3444C17.3028 14.4042 17.3042 14.4015 17.2391 14.4015C16.952 14.4015 16.6678 14.4015 16.3821 14.4015C16.3651 14.4015 16.3482 14.4015 16.3312 14.4015C16.3284 12.0637 16.3284 9.72843 16.3284 7.39453ZM17.3013 10.6822C17.3211 10.6822 17.3367 10.6822 17.3551 10.6822C17.8996 10.6822 18.444 10.6822 18.9885 10.6822C19.0352 10.6822 19.079 10.6649 19.1271 10.6716C19.1483 10.6556 19.1737 10.6649 19.1964 10.6583C19.2303 10.6476 19.2614 10.6397 19.2968 10.6317C19.3519 10.6197 19.4043 10.6038 19.458 10.5826C19.5047 10.564 19.5471 10.5387 19.5924 10.5175C19.6362 10.4936 19.68 10.4683 19.7196 10.4391C19.755 10.4125 19.7804 10.3767 19.8186 10.3554C19.8469 10.3102 19.8936 10.2784 19.9318 10.2425C19.97 10.204 19.9996 10.1601 20.0336 10.1176C20.0774 10.0605 20.1142 10.0007 20.1439 9.93565C20.1637 9.89049 20.1948 9.84665 20.1948 9.79617C20.2287 9.73507 20.2259 9.66733 20.2443 9.60622C20.25 9.58231 20.2486 9.55707 20.2443 9.53316C20.2429 9.5066 20.257 9.48534 20.2542 9.46143C20.2528 9.44151 20.2457 9.42158 20.2457 9.40299C20.2443 9.34587 20.2401 9.28742 20.2245 9.22897C20.2189 9.20506 20.2146 9.18514 20.2075 9.1599C20.2005 9.13732 20.1948 9.11473 20.1863 9.09082C20.1609 9.02175 20.1312 8.95268 20.093 8.89157C20.0463 8.81054 19.9883 8.73749 19.9205 8.67107C19.878 8.62989 19.8314 8.58871 19.7889 8.5462C19.7663 8.52362 19.738 8.50635 19.7126 8.48643C19.6716 8.45455 19.6277 8.42665 19.5825 8.40274C19.5315 8.37485 19.4806 8.34563 19.4255 8.32304C19.3675 8.30179 19.3081 8.27921 19.2473 8.26725C19.1978 8.25796 19.1497 8.246 19.0988 8.246C18.5147 8.246 17.9321 8.246 17.3494 8.246C17.3339 8.246 17.3197 8.246 17.3028 8.246C17.3013 9.0616 17.3013 9.8679 17.3013 10.6822Z" fill="#5F6368"/>
<path d="M24.7429 11.5862C24.7513 11.5783 24.7485 11.5703 24.7485 11.5623C24.7485 11.5105 24.7471 11.4574 24.7485 11.4056C24.7528 11.3458 24.7372 11.2873 24.7358 11.2276C24.7344 11.1944 24.7273 11.1558 24.7146 11.1213C24.7033 11.0908 24.6934 11.0562 24.6835 11.0257C24.6622 10.9632 24.6297 10.9061 24.5958 10.849C24.5703 10.8052 24.5406 10.7666 24.5039 10.7268C24.4869 10.7095 24.4742 10.6856 24.4558 10.6697C24.4247 10.6471 24.4006 10.6179 24.3681 10.5993C24.337 10.5793 24.3129 10.5541 24.2804 10.5342C24.2295 10.501 24.1786 10.4664 24.1263 10.4385C24.0966 10.4226 24.0669 10.4053 24.0358 10.3907C23.9778 10.3681 23.9254 10.3429 23.866 10.327C23.8194 10.3137 23.7727 10.2991 23.726 10.2911C23.6836 10.2831 23.6384 10.2791 23.5988 10.2712C23.5408 10.2592 23.4856 10.2645 23.4291 10.2619C23.3739 10.2605 23.3159 10.2645 23.2608 10.2605C23.2396 10.2605 23.2254 10.2725 23.2028 10.2725C23.1844 10.2712 23.1646 10.2698 23.1448 10.2791C23.1264 10.2884 23.0981 10.2858 23.0727 10.2884C23.0133 10.2991 22.9553 10.3163 22.8987 10.3309C22.8153 10.3535 22.7418 10.3907 22.6668 10.4253C22.6131 10.4518 22.565 10.4824 22.5183 10.5156C22.4589 10.5607 22.3953 10.6046 22.3444 10.6604C22.3048 10.7055 22.2567 10.748 22.2242 10.7985C22.2072 10.8251 22.186 10.8503 22.1648 10.8769C22.1549 10.8888 22.1478 10.8928 22.1294 10.8822C22.0615 10.8437 21.9936 10.8065 21.9272 10.768C21.8763 10.7374 21.8254 10.7095 21.773 10.6803C21.7193 10.6497 21.667 10.6205 21.6161 10.5886C21.5609 10.5568 21.5057 10.5222 21.4506 10.4917C21.4082 10.4678 21.3657 10.4439 21.3261 10.4186C21.3148 10.4133 21.3106 10.4053 21.3247 10.392C21.3643 10.3535 21.4011 10.307 21.4393 10.2645C21.51 10.1848 21.5906 10.1158 21.6684 10.0467C21.732 9.98823 21.8041 9.93643 21.8763 9.88595C21.9258 9.85274 21.9809 9.82485 22.0332 9.79296C22.0757 9.76905 22.1181 9.74647 22.1605 9.72522C22.2072 9.70264 22.2553 9.67873 22.3048 9.66146C22.3585 9.63888 22.4137 9.62161 22.4674 9.60301C22.5084 9.59106 22.5466 9.57379 22.5876 9.56582C22.6215 9.55918 22.6541 9.54589 22.688 9.53925C22.7262 9.53261 22.7644 9.52198 22.8054 9.51667C22.8252 9.51401 22.8407 9.50073 22.8634 9.50604C22.8818 9.51269 22.8945 9.49542 22.9143 9.49675C22.9341 9.49675 22.9553 9.50339 22.9723 9.48877H22.9765C23.0232 9.49542 23.067 9.47151 23.1137 9.47815C23.1943 9.45955 23.2777 9.47018 23.3583 9.46885C23.3767 9.46885 23.3937 9.45557 23.4163 9.45557C23.4432 9.45822 23.4687 9.47018 23.4983 9.46885C23.528 9.46354 23.5592 9.46885 23.5889 9.46885C23.6186 9.46885 23.6483 9.46221 23.6765 9.47018C23.7147 9.47815 23.7529 9.47151 23.7897 9.47948C23.8477 9.49276 23.9071 9.48612 23.9594 9.50737C24.0089 9.50339 24.0527 9.52198 24.098 9.52863C24.1531 9.5366 24.2083 9.55519 24.2634 9.56715C24.3016 9.57777 24.3384 9.5884 24.3766 9.60035C24.4218 9.61629 24.4671 9.63091 24.5123 9.64818C24.5661 9.67076 24.6184 9.69201 24.6693 9.71858C24.7414 9.75311 24.8136 9.79562 24.8786 9.83946C24.9493 9.88861 25.0186 9.93377 25.0823 9.98956C25.1162 10.0188 25.1544 10.0454 25.1841 10.0786C25.2421 10.1423 25.3015 10.2061 25.3566 10.2738C25.4358 10.3695 25.4924 10.4797 25.5504 10.59C25.5603 10.6099 25.5716 10.6285 25.5786 10.6497C25.5843 10.6737 25.5999 10.6936 25.6069 10.7148C25.6126 10.7387 25.6239 10.756 25.6281 10.7773C25.6338 10.8012 25.6423 10.8251 25.6494 10.8503C25.655 10.8742 25.6578 10.8942 25.6692 10.9194C25.6748 10.9367 25.6649 10.9566 25.6819 10.9712C25.6819 11.0217 25.7059 11.0668 25.7031 11.116C25.7243 11.1519 25.7088 11.1944 25.7201 11.2316C25.73 11.2701 25.7172 11.3139 25.7243 11.3564C25.7427 11.4959 25.73 11.6394 25.7328 11.7802C25.7342 11.9223 25.7328 12.0631 25.7328 12.2052C25.7328 12.3474 25.7328 12.4908 25.7328 12.633C25.7328 12.7724 25.7328 12.9159 25.7328 13.0554C25.7328 13.2002 25.7328 13.341 25.7328 13.4858C25.7328 13.6252 25.7328 13.7687 25.7328 13.9082C25.7328 14.0503 25.7328 14.1938 25.7328 14.3359C25.7328 14.3904 25.7328 14.3904 25.6734 14.3904C25.4075 14.3904 25.1431 14.3904 24.8786 14.3904C24.8687 14.3904 24.8574 14.3904 24.8489 14.3904C24.8291 14.3904 24.8206 14.3824 24.8206 14.3664C24.8206 14.3532 24.8206 14.3425 24.8206 14.3332C24.8206 14.1366 24.8206 13.9387 24.8206 13.7421C24.8206 13.7342 24.8305 13.7182 24.8121 13.7156C24.7966 13.7102 24.7881 13.7182 24.781 13.7315C24.7499 13.7806 24.7089 13.8245 24.6721 13.871C24.6085 13.9493 24.5335 14.0158 24.46 14.0862C24.4133 14.1273 24.3596 14.1672 24.3101 14.2031C24.2649 14.2336 24.2196 14.2655 24.1715 14.2907C24.1121 14.3239 24.0527 14.3585 23.9891 14.3837C23.9353 14.4023 23.8844 14.4249 23.8321 14.4408C23.7642 14.4621 23.6992 14.482 23.6285 14.498C23.6087 14.5006 23.586 14.498 23.5733 14.5059C23.5535 14.5165 23.5351 14.5086 23.5196 14.5139C23.4856 14.5325 23.4474 14.5219 23.4093 14.5325C23.3753 14.5405 23.3357 14.5325 23.2989 14.5325C23.2692 14.5351 23.2381 14.5431 23.2084 14.5431C23.1703 14.5431 23.1349 14.5298 23.0953 14.5325C23.06 14.5351 23.0189 14.5378 22.985 14.5325C22.9567 14.5245 22.9298 14.5245 22.9016 14.5245C22.8733 14.5219 22.8464 14.5166 22.8181 14.5139C22.7601 14.5006 22.7007 14.5006 22.6456 14.478C22.5848 14.478 22.5268 14.4541 22.4688 14.4369C22.4038 14.4183 22.3401 14.3957 22.2765 14.3691C22.2227 14.3478 22.1718 14.3226 22.1195 14.2987C22.0771 14.2775 22.0375 14.2549 21.9965 14.231C21.9682 14.2124 21.9413 14.2004 21.9159 14.1818C21.8932 14.1632 21.8649 14.1513 21.8423 14.13C21.8197 14.1087 21.7886 14.0941 21.7659 14.0702C21.7348 14.0423 21.7023 14.0078 21.6684 13.9799C21.6373 13.952 21.609 13.9201 21.5835 13.8896C21.5581 13.8564 21.5241 13.8325 21.5114 13.7939C21.4449 13.7182 21.3983 13.6332 21.3544 13.5495C21.3332 13.5083 21.312 13.4645 21.2964 13.4193C21.2879 13.3914 21.2738 13.3649 21.2653 13.337C21.2554 13.3038 21.2469 13.2692 21.237 13.2387C21.2229 13.1763 21.2116 13.1138 21.2031 13.0514C21.1974 13.0022 21.1989 12.9531 21.1974 12.9013C21.196 12.8521 21.1918 12.8003 21.1974 12.7512C21.2031 12.702 21.2031 12.6502 21.2187 12.6011C21.2286 12.5679 21.2243 12.5307 21.2484 12.4975C21.2795 12.3527 21.3176 12.269 21.3912 12.1441C21.4336 12.0711 21.4803 12.0047 21.5354 11.9422C21.5567 11.9157 21.5793 11.8931 21.6047 11.8718C21.6259 11.8506 21.6387 11.8253 21.6627 11.8067C21.7419 11.7443 21.8154 11.6792 21.9017 11.6247C21.9512 11.5969 22.0035 11.5703 22.0516 11.5397C22.1167 11.5012 22.1916 11.48 22.2595 11.4468C22.2835 11.4348 22.3132 11.4308 22.3387 11.4189C22.3642 11.4082 22.3939 11.4082 22.4193 11.3976C22.4773 11.3763 22.5367 11.371 22.5904 11.3511C22.6074 11.3458 22.6314 11.3564 22.6456 11.3418C22.6993 11.3418 22.7474 11.3192 22.8012 11.3219C22.8195 11.3219 22.8323 11.3059 22.8521 11.3113C22.8676 11.3152 22.886 11.3152 22.8987 11.3033H22.903C22.9539 11.3113 23.0006 11.29 23.0515 11.2927C23.1321 11.2953 23.2155 11.2781 23.2947 11.282C23.3781 11.2874 23.4602 11.2847 23.5436 11.282C23.5747 11.2794 23.603 11.2966 23.637 11.2953C23.6666 11.29 23.6978 11.2887 23.7275 11.2953C23.7614 11.3033 23.7925 11.3033 23.825 11.3033C23.842 11.3033 23.8562 11.3166 23.8759 11.3126C23.8901 11.3086 23.9071 11.3152 23.9226 11.3219C23.9452 11.3272 23.9735 11.3272 23.999 11.3312C24.0244 11.3352 24.0499 11.3418 24.0754 11.3431C24.0994 11.3458 24.122 11.3578 24.1432 11.3591C24.2337 11.3724 24.32 11.4029 24.4091 11.4282C24.4303 11.4348 24.4487 11.4428 24.4699 11.4507C24.5378 11.4786 24.6085 11.5052 24.6736 11.5411C24.6919 11.5623 24.716 11.5809 24.7429 11.5862ZM23.5592 12.0246C23.4955 12.0299 23.4177 12.014 23.3385 12.0352C23.2961 12.0299 23.2537 12.0485 23.2113 12.0458C23.207 12.0458 23.2028 12.0432 23.2 12.0458C23.1858 12.0644 23.1604 12.0485 23.149 12.0565C23.1335 12.0697 23.1151 12.0565 23.1024 12.0671C23.0868 12.0804 23.0642 12.0644 23.0529 12.083C22.9341 12.1096 22.8945 12.1295 22.8012 12.168C22.722 12.1986 22.6512 12.2438 22.5805 12.2902C22.5296 12.3235 22.4787 12.358 22.4306 12.3939C22.4023 12.4178 22.3797 12.443 22.3585 12.4696C22.3288 12.5054 22.3033 12.5426 22.2793 12.5812C22.251 12.6303 22.2284 12.6768 22.2143 12.7286C22.2029 12.7698 22.1973 12.8096 22.1902 12.8482C22.186 12.8747 22.1902 12.9 22.1902 12.9265C22.1902 12.9504 22.1916 12.973 22.1902 12.9969C22.186 13.0235 22.1987 13.0461 22.2029 13.07C22.21 13.1085 22.2185 13.151 22.2355 13.1842C22.2751 13.2692 22.3231 13.3476 22.3882 13.4154C22.4278 13.4592 22.4815 13.4884 22.5282 13.5243C22.5607 13.5455 22.5961 13.5628 22.6286 13.5867C22.6597 13.6053 22.6937 13.6226 22.7276 13.6359C22.7927 13.6638 22.862 13.6903 22.9341 13.7116C23.002 13.7302 23.0698 13.7395 23.1406 13.7501C23.1575 13.7554 23.1759 13.7501 23.1957 13.7501C23.2127 13.7501 23.2339 13.7474 23.2452 13.7554C23.2664 13.7714 23.2763 13.7501 23.2933 13.7501C23.34 13.7501 23.3895 13.7501 23.4375 13.7421C23.4828 13.7342 23.5309 13.7315 23.5761 13.7209C23.6101 13.7156 23.644 13.7049 23.6751 13.6943C23.7388 13.6784 23.7982 13.6505 23.8604 13.6292C23.924 13.6053 23.9792 13.5748 24.0358 13.5442C24.1404 13.4871 24.2337 13.414 24.32 13.337C24.3836 13.2799 24.4473 13.2227 24.5024 13.1577C24.5279 13.1244 24.5519 13.0926 24.5774 13.062C24.6028 13.0288 24.6198 12.9916 24.6424 12.9584C24.6778 12.9039 24.7033 12.8468 24.7273 12.787C24.7485 12.7273 24.7768 12.6728 24.7782 12.6104C24.7924 12.5971 24.7796 12.5745 24.7881 12.5639C24.8037 12.5453 24.7966 12.528 24.7966 12.5094C24.7966 12.4908 24.8093 12.4789 24.8079 12.4629C24.8065 12.4297 24.8079 12.3978 24.8079 12.3673C24.8079 12.3514 24.7994 12.3434 24.7881 12.3394C24.7598 12.3235 24.7344 12.3062 24.7075 12.2902C24.6594 12.2624 24.6127 12.2305 24.559 12.2092C24.5123 12.1906 24.4699 12.168 24.4218 12.1548C24.3766 12.1388 24.3342 12.1215 24.2875 12.1109C24.238 12.103 24.1899 12.0844 24.139 12.0777C24.0994 12.0724 24.0584 12.0644 24.0188 12.0538C23.9976 12.0511 23.9735 12.0458 23.9537 12.0432C23.9297 12.0432 23.9042 12.0485 23.8816 12.0326C23.8307 12.0405 23.7798 12.0246 23.7289 12.0246C23.678 12.0246 23.6271 12.0246 23.5592 12.0246Z" fill="#5F6368"/>
<path d="M5.54906 9.04196C5.56886 9.04063 5.57027 9.02469 5.57451 9.01274C5.60563 8.94898 5.64239 8.88788 5.68058 8.82544C5.723 8.7577 5.76543 8.69261 5.8121 8.62885C5.8517 8.5704 5.89553 8.51461 5.93655 8.45882C5.962 8.42561 5.99454 8.39108 6.02141 8.35787C6.06807 8.30208 6.12181 8.2516 6.16565 8.19448C6.16565 8.19448 6.16989 8.1905 6.17131 8.18784C6.2505 8.11611 6.3198 8.03242 6.40041 7.96335C6.42587 7.94077 6.45556 7.92616 6.4796 7.89959C6.50082 7.87701 6.52345 7.85576 6.55315 7.83849C6.58426 7.81856 6.60688 7.78801 6.64082 7.76808C6.67193 7.75081 6.69881 7.72425 6.72851 7.70432C6.75679 7.6844 6.78649 7.66447 6.81336 7.64455C6.87275 7.60204 6.93215 7.56086 6.99296 7.525C7.0467 7.49312 7.09761 7.46389 7.14994 7.43201C7.21358 7.39615 7.27722 7.36294 7.34368 7.3284C7.39884 7.30051 7.454 7.27394 7.51198 7.24604C7.59683 7.20619 7.68451 7.17697 7.76795 7.13845C7.81038 7.13446 7.84714 7.11055 7.88674 7.0986C7.92775 7.0893 7.97018 7.07602 8.00554 7.06141C8.04796 7.04148 8.09463 7.03351 8.13989 7.0189C8.18373 7.00562 8.23039 6.99499 8.27848 6.98569C8.32515 6.97639 8.36899 6.96576 8.41566 6.95248C8.43687 6.94584 8.46091 6.94186 8.48212 6.94053C8.50758 6.94053 8.52879 6.92459 8.55425 6.93123C8.57405 6.9113 8.60091 6.9299 8.62212 6.91263C8.63768 6.90333 8.66455 6.91795 8.68293 6.90333C8.7197 6.90865 8.75081 6.88739 8.78475 6.89271C8.8088 6.89669 8.82435 6.88075 8.84556 6.88341C8.86536 6.88473 8.88516 6.89271 8.90355 6.87544C8.90355 6.87544 8.90921 6.87544 8.91345 6.87544C8.97285 6.88341 9.028 6.86083 9.0874 6.86614C9.14821 6.87145 9.2076 6.85153 9.27124 6.85551C9.33347 6.8595 9.39286 6.85551 9.45367 6.85551C9.51448 6.85551 9.57813 6.85684 9.64035 6.85551C9.67005 6.85418 9.69409 6.86747 9.72379 6.86614C9.75349 6.86348 9.78318 6.8595 9.80864 6.86747C9.83834 6.87544 9.86945 6.86747 9.89632 6.87677C9.93168 6.89005 9.97269 6.87278 10.0038 6.89536C10.0377 6.88872 10.0703 6.90333 10.1014 6.90466C10.1268 6.90599 10.1537 6.91263 10.1792 6.9206C10.2004 6.92592 10.2244 6.92857 10.2442 6.93256C10.298 6.93787 10.346 6.95514 10.3969 6.96576C10.4266 6.97373 10.4578 6.9817 10.4875 6.98835C10.5172 6.99499 10.5454 7.00429 10.5751 7.01226C10.6048 7.02023 10.636 7.02554 10.6642 7.03882C10.6925 7.05078 10.7236 7.05875 10.7533 7.06805C10.8085 7.08532 10.8608 7.10524 10.916 7.12517C11.0588 7.17963 11.1988 7.23807 11.3317 7.30715C11.394 7.33903 11.4576 7.37091 11.517 7.40677C11.5722 7.43998 11.6287 7.47186 11.6867 7.5064C11.7419 7.53961 11.7956 7.57813 11.8479 7.61267C11.8988 7.64588 11.9469 7.6844 11.9978 7.71761C12.0233 7.7362 12.053 7.75347 12.0742 7.77738C12.0926 7.79731 12.118 7.80793 12.1393 7.82786C12.1562 7.84646 12.1704 7.86771 12.1986 7.87834C12.2114 7.88232 12.2071 7.89693 12.2043 7.90225C12.2001 7.91154 12.1902 7.91819 12.1803 7.92616C11.7928 8.29012 11.4067 8.65276 11.0178 9.01805C11.0121 9.02337 11.0051 9.03134 10.9966 9.03798C10.9881 9.04462 10.9768 9.04462 10.9683 9.03798C10.9513 9.01938 10.9287 9.0061 10.9089 8.99016C10.8255 8.91976 10.7321 8.85998 10.6416 8.80286C10.5355 8.73512 10.421 8.68464 10.3064 8.63283C10.2357 8.60095 10.1636 8.5797 10.0915 8.55579C10.0646 8.54649 10.0392 8.53454 10.0109 8.52922C9.98259 8.52125 9.95573 8.51594 9.92744 8.50797C9.89916 8.5 9.87228 8.49336 9.84399 8.48937C9.81571 8.48539 9.79026 8.47343 9.76339 8.47742C9.745 8.4814 9.73369 8.46546 9.71672 8.46679C9.70399 8.46945 9.68703 8.47343 9.6743 8.45882C9.6743 8.45882 9.66863 8.45749 9.66581 8.45749C9.61631 8.46281 9.57106 8.44288 9.52297 8.44687C9.48055 8.45085 9.43812 8.43225 9.39569 8.43624C9.35044 8.44022 9.30802 8.4389 9.26418 8.43624C9.20478 8.43358 9.14538 8.45218 9.08599 8.44687C9.06336 8.46015 9.03366 8.45085 9.00962 8.45749C8.98416 8.46281 8.95588 8.45882 8.93325 8.46679C8.87951 8.48406 8.82577 8.48937 8.77203 8.50133C8.71122 8.51461 8.65182 8.53454 8.58959 8.54782C8.5302 8.56243 8.47646 8.58634 8.4199 8.60228C8.38171 8.61291 8.34918 8.63284 8.311 8.64612C8.27564 8.65542 8.24312 8.67667 8.20918 8.69128C8.12574 8.72847 8.04796 8.77364 7.97159 8.82013C7.91361 8.85599 7.85704 8.89319 7.8033 8.93171C7.77501 8.95562 7.74815 8.97555 7.71986 8.99946C7.66046 9.04595 7.60249 9.09775 7.55016 9.15221C7.49218 9.20668 7.44267 9.26645 7.39176 9.32756C7.34509 9.38069 7.30409 9.43914 7.26308 9.49758C7.20934 9.5733 7.1655 9.65167 7.12024 9.73137C7.07923 9.80709 7.04811 9.88147 7.01841 9.95985C7.00144 10.001 6.99296 10.0449 6.97175 10.0847C6.96043 10.1086 6.96044 10.1086 6.94347 10.0927C6.93923 10.09 6.93781 10.0821 6.92791 10.0834C6.89963 10.0608 6.87276 10.0382 6.84306 10.0196C6.82043 10.005 6.80063 9.98642 6.77941 9.97048C6.74547 9.94657 6.71153 9.92664 6.67759 9.90007C6.63517 9.86819 6.58991 9.83498 6.54607 9.80443C6.51637 9.78185 6.48244 9.76325 6.45557 9.73669C6.42021 9.70348 6.37779 9.67691 6.33677 9.64636C6.28303 9.60784 6.23071 9.56666 6.17556 9.53212C6.13737 9.50556 6.10343 9.475 6.06242 9.45109C6.00868 9.41788 5.95776 9.3767 5.90968 9.33685C5.88564 9.31826 5.86301 9.3063 5.83897 9.29036C5.78805 9.2545 5.73715 9.2173 5.69048 9.18011C5.65654 9.15221 5.61411 9.13229 5.58441 9.10041C5.55047 9.09377 5.54623 9.06853 5.54906 9.04196Z" fill="#E94335"/>
<path d="M25.8813 9.65305C26.2292 9.65305 26.5729 9.65305 26.9165 9.65305C26.9505 9.70751 26.9717 9.76728 26.9972 9.82573C27.0226 9.88684 27.0509 9.94661 27.0764 10.009C27.0976 10.0582 27.1202 10.1087 27.1442 10.1591C27.1725 10.2216 27.1994 10.2867 27.2291 10.3504C27.2503 10.3982 27.2687 10.4474 27.297 10.4952C27.321 10.5351 27.3337 10.5789 27.3507 10.6227C27.3606 10.648 27.3719 10.6732 27.3846 10.6971C27.4158 10.7649 27.4455 10.8326 27.4752 10.899C27.5034 10.9615 27.5331 11.0199 27.5558 11.0837C27.5642 11.1102 27.5798 11.1315 27.5897 11.1567C27.6208 11.2245 27.6505 11.2922 27.6802 11.3586C27.7057 11.4211 27.7354 11.4808 27.7608 11.5433C27.7778 11.5845 27.799 11.6256 27.8188 11.6681C27.84 11.7173 27.8641 11.7691 27.8839 11.8182C27.9051 11.8674 27.9291 11.9165 27.9489 11.963C27.9786 12.0281 28.0097 12.0906 28.0338 12.1596C28.0422 12.1862 28.0578 12.2061 28.0677 12.23C28.096 12.2978 28.1313 12.3655 28.1596 12.4346C28.1851 12.4944 28.2148 12.5541 28.2374 12.6166C28.2544 12.6578 28.2756 12.6976 28.2926 12.7388C28.3138 12.7932 28.3392 12.8451 28.3619 12.8995C28.3859 12.9487 28.4043 13.0005 28.4326 13.0523C28.434 13.0549 28.4411 13.0576 28.4382 13.0629C28.4382 13.0709 28.434 13.0842 28.451 13.0842C28.4679 13.0842 28.4821 13.0842 28.4863 13.0682C28.516 12.9726 28.5641 12.8862 28.6009 12.7932C28.6235 12.7308 28.6518 12.6684 28.6815 12.6086C28.7126 12.5382 28.7451 12.4691 28.7706 12.3961C28.7791 12.3722 28.7946 12.3496 28.8045 12.323C28.8172 12.2925 28.83 12.2606 28.8427 12.23C28.8554 12.1995 28.8682 12.1676 28.8823 12.137C28.9035 12.0985 28.9205 12.056 28.9374 12.0148C28.9572 11.971 28.9728 11.9245 28.9954 11.8794C29.0152 11.8355 29.035 11.7917 29.0548 11.7465C29.0803 11.6894 29.1043 11.6349 29.1241 11.5778C29.1354 11.5499 29.1524 11.526 29.1623 11.4981C29.1962 11.4197 29.2274 11.3427 29.2613 11.2657C29.291 11.1953 29.3164 11.1262 29.349 11.0558C29.3843 10.9774 29.4126 10.8964 29.455 10.8207C29.4536 10.7888 29.4805 10.7675 29.489 10.7383C29.4975 10.7117 29.513 10.6865 29.5229 10.6599C29.5441 10.6041 29.5696 10.551 29.5908 10.4965C29.6078 10.4567 29.629 10.4155 29.646 10.3743C29.6658 10.3292 29.6813 10.284 29.7039 10.2388C29.7209 10.199 29.7393 10.1565 29.7591 10.1166C29.7789 10.0728 29.7944 10.0263 29.8171 9.98115C29.8369 9.9413 29.8524 9.89879 29.8722 9.85894C29.8906 9.81511 29.9118 9.76994 29.9274 9.72345C29.9359 9.69954 29.9557 9.6836 29.9571 9.65836C29.9571 9.65305 29.9585 9.65039 29.9656 9.65039C29.9741 9.65039 29.9825 9.65039 29.991 9.65039C30.3021 9.65039 30.6161 9.65039 30.9286 9.65039C30.9343 9.65039 30.9414 9.65039 30.9513 9.65039C30.9173 9.72611 30.8834 9.80182 30.848 9.87355C30.8381 9.89481 30.8325 9.91473 30.8197 9.93333C30.807 9.95193 30.8 9.97318 30.7915 9.9931C30.783 10.0144 30.766 10.0316 30.766 10.0555C30.7306 10.1127 30.708 10.1804 30.6769 10.2402C30.6599 10.2681 30.6472 10.3013 30.6373 10.3332C30.6246 10.3637 30.6076 10.3943 30.5921 10.4235C30.5793 10.4527 30.5638 10.4859 30.5496 10.5165C30.5199 10.5789 30.4902 10.6427 30.462 10.7064C30.445 10.7449 30.4266 10.7821 30.4082 10.818C30.3927 10.8499 30.3771 10.8831 30.3644 10.9136C30.3516 10.9469 30.3318 10.9774 30.3219 11.0119C30.3135 11.0385 30.2979 11.0611 30.2866 11.0877C30.2527 11.1554 30.2215 11.2231 30.189 11.2922C30.1551 11.3653 30.1197 11.4397 30.0858 11.5127C30.0547 11.5871 30.0179 11.6575 29.984 11.7319C29.95 11.8023 29.9161 11.8767 29.8835 11.9471C29.8482 12.0281 29.81 12.1078 29.7732 12.1862C29.7393 12.2593 29.7054 12.3336 29.67 12.4067C29.6445 12.4559 29.6205 12.5077 29.5979 12.5595C29.5752 12.6086 29.554 12.6604 29.53 12.7096C29.4961 12.7826 29.4621 12.857 29.4268 12.9301C29.3928 13.0031 29.3589 13.0749 29.3249 13.1479C29.3009 13.1997 29.2754 13.2489 29.2528 13.3007C29.2288 13.3525 29.2033 13.4016 29.1807 13.4534C29.1566 13.5026 29.1368 13.5517 29.1128 13.6035C29.0789 13.6766 29.0449 13.751 29.0082 13.824C28.9742 13.8971 28.9403 13.9688 28.9063 14.0419C28.8823 14.0937 28.8568 14.1428 28.8342 14.1946C28.8102 14.2465 28.7847 14.2956 28.7621 14.3474C28.7281 14.4205 28.697 14.4922 28.6631 14.5653C28.639 14.6144 28.6136 14.6662 28.591 14.718C28.5599 14.7911 28.5231 14.8628 28.4891 14.9332C28.4651 14.985 28.4396 15.0368 28.417 15.0886C28.3944 15.1404 28.3689 15.1896 28.3449 15.2414C28.3109 15.3144 28.2798 15.3862 28.2445 15.4566C28.2219 15.5084 28.1964 15.5602 28.1724 15.612C28.1412 15.685 28.1045 15.7568 28.0705 15.8272C28.0465 15.879 28.021 15.9281 27.9984 15.9799C27.9758 16.0317 27.9489 16.0836 27.9263 16.1354C27.9093 16.1686 27.8923 16.2058 27.8768 16.2443C27.8612 16.2801 27.8414 16.3147 27.8231 16.3505C27.8018 16.397 27.7849 16.4435 27.7594 16.4887C27.7537 16.4993 27.7537 16.5046 27.7396 16.5046C27.7339 16.5046 27.7269 16.5046 27.7184 16.5046C27.4143 16.5046 27.1089 16.5046 26.8062 16.5046C26.7992 16.5046 26.7935 16.5046 26.785 16.5046C26.8062 16.4449 26.8359 16.3931 26.8642 16.3413C26.8868 16.2921 26.9123 16.2456 26.9335 16.1965C26.9576 16.1447 26.9915 16.0928 27.0141 16.0384C27.0353 15.9892 27.065 15.9401 27.0862 15.8909C27.1103 15.8365 27.1414 15.7873 27.1654 15.7355C27.1895 15.6837 27.2192 15.6372 27.239 15.5854C27.2588 15.5389 27.2885 15.4951 27.3069 15.4499C27.3295 15.3928 27.3648 15.341 27.3875 15.2865C27.4087 15.2347 27.437 15.1909 27.4596 15.1418C27.4836 15.09 27.5176 15.0381 27.5402 14.9837C27.5628 14.9319 27.5925 14.8854 27.6166 14.8336C27.6364 14.7871 27.6661 14.7486 27.6816 14.7007C27.7071 14.641 27.741 14.5865 27.7665 14.5294C27.7863 14.4829 27.816 14.4391 27.8344 14.3939C27.857 14.3341 27.8923 14.2823 27.9178 14.2252C27.9319 14.1893 27.9517 14.1521 27.9701 14.1189C27.9744 14.111 27.9772 14.1083 27.9715 14.0977C27.9433 14.0406 27.9192 13.9834 27.8938 13.929C27.8655 13.8692 27.8344 13.8121 27.8089 13.7497C27.7919 13.7111 27.7707 13.6713 27.7538 13.6328C27.7368 13.5942 27.7184 13.5544 27.7 13.5159C27.6576 13.4282 27.6166 13.3419 27.5756 13.2542C27.5558 13.2157 27.5374 13.1732 27.5176 13.132C27.5006 13.0935 27.4822 13.0536 27.4624 13.0151C27.4341 12.958 27.4087 12.9008 27.3818 12.8464C27.3436 12.7654 27.304 12.6857 27.2673 12.6046C27.2446 12.5475 27.2163 12.493 27.1909 12.4386C27.1626 12.3788 27.1315 12.3217 27.106 12.2619C27.082 12.2101 27.0565 12.1583 27.0339 12.1065C27.0085 12.052 26.983 11.9976 26.9576 11.9431C26.9293 11.8833 26.8982 11.8236 26.8727 11.7638C26.8487 11.712 26.8232 11.6628 26.8006 11.6097C26.7751 11.5552 26.7468 11.4968 26.7214 11.441C26.6931 11.3839 26.6662 11.3254 26.6379 11.267C26.6026 11.1873 26.5644 11.1089 26.5248 11.0305C26.4965 10.9721 26.4697 10.9136 26.4414 10.8565C26.406 10.7755 26.3678 10.6971 26.3311 10.6201C26.3056 10.563 26.2773 10.5058 26.2505 10.4501C26.2123 10.3704 26.1755 10.288 26.1359 10.2083C26.1104 10.1552 26.0822 10.098 26.0595 10.0436C26.0327 9.98381 26.0001 9.92536 25.9747 9.86426C25.9506 9.81378 25.928 9.7633 25.9026 9.7115C25.9068 9.71017 25.8969 9.6836 25.8813 9.65305Z" fill="#5F6368"/>
<path d="M6.93133 11.6353C6.95537 11.6459 6.95254 11.6724 6.96102 11.6924C6.98082 11.7442 6.99922 11.7986 7.02467 11.8504C7.05578 11.9155 7.08972 11.978 7.12649 12.0431C7.1477 12.0816 7.17034 12.1254 7.19862 12.1626C7.22266 12.1932 7.24104 12.2277 7.2665 12.2609C7.2863 12.2848 7.30468 12.3074 7.32165 12.334C7.33862 12.3579 7.35984 12.3805 7.37964 12.4044C7.46307 12.5053 7.56207 12.5917 7.65823 12.682C7.72611 12.7444 7.80531 12.8015 7.88026 12.8533C7.91844 12.8799 7.95663 12.8998 7.99481 12.9264C8.06694 12.9702 8.14331 13.0114 8.2225 13.046C8.24089 13.0539 8.25644 13.0725 8.27623 13.0738C8.29745 13.0792 8.31442 13.0871 8.3328 13.0978C8.38796 13.1243 8.44594 13.1389 8.50251 13.1602C8.53362 13.1735 8.56615 13.1868 8.60009 13.1934C8.64393 13.204 8.68778 13.2173 8.73162 13.2266C8.76556 13.2372 8.80374 13.2425 8.83768 13.2532C8.85041 13.2585 8.86596 13.2585 8.87728 13.2558C8.89283 13.2532 8.90132 13.2665 8.91263 13.2665C8.97203 13.2691 9.03143 13.2797 9.09082 13.2877C9.14173 13.293 9.19122 13.2851 9.23931 13.2957C9.29022 13.3037 9.34113 13.2983 9.39204 13.3036C9.42457 13.3036 9.45144 13.2877 9.48538 13.293C9.5165 13.2957 9.55044 13.2983 9.58014 13.293C9.61408 13.2851 9.64519 13.2851 9.67772 13.2851C9.69469 13.2851 9.70882 13.2691 9.72862 13.2744C9.74277 13.2771 9.75974 13.2771 9.7753 13.2665C9.7852 13.2611 9.80499 13.2638 9.81914 13.2665C9.83469 13.2691 9.84459 13.2558 9.85873 13.2532C9.89975 13.2505 9.93934 13.2372 9.97894 13.2293C10.0284 13.2213 10.0751 13.208 10.1218 13.1961C10.1713 13.1828 10.2179 13.1695 10.2646 13.1496C10.3028 13.1363 10.341 13.123 10.3792 13.111C10.3834 13.1084 10.3876 13.1084 10.3919 13.1057C10.447 13.0818 10.505 13.0619 10.5574 13.0327C10.6125 13.0048 10.6634 12.9729 10.7157 12.9423C10.744 12.9264 10.7709 12.9144 10.7992 12.9012C10.8303 12.9397 10.8798 12.9609 10.918 12.9941C10.9477 13.0181 10.9816 13.038 11.0141 13.0592C11.0495 13.0805 11.0792 13.1057 11.1131 13.1323C11.1485 13.1589 11.1824 13.1868 11.222 13.2133C11.2899 13.2572 11.3507 13.3063 11.4172 13.3528C11.4525 13.3794 11.4893 13.4046 11.5261 13.4338C11.5572 13.4577 11.594 13.475 11.6251 13.5016C11.676 13.5454 11.734 13.5799 11.7863 13.6211C11.8499 13.665 11.9136 13.7115 11.9786 13.7566C12.0465 13.8031 12.113 13.8523 12.178 13.8987C12.1526 13.9293 12.1243 13.9585 12.0889 13.9798C12.0635 13.9957 12.0423 14.0183 12.0168 14.0369C11.9419 14.094 11.8669 14.1458 11.7877 14.1976C11.7326 14.2335 11.6732 14.268 11.6152 14.3039C11.5643 14.3371 11.5063 14.3637 11.4511 14.3916C11.3861 14.4274 11.3154 14.4593 11.2447 14.4899C11.2008 14.5085 11.1584 14.5284 11.1131 14.5443C11.0707 14.5603 11.0254 14.5775 10.9844 14.5935C10.9081 14.6214 10.8317 14.6479 10.7553 14.6718C10.7016 14.6878 10.6493 14.7024 10.5955 14.7157C10.5277 14.7343 10.4584 14.7462 10.3876 14.7648C10.3353 14.7781 10.2802 14.7834 10.2264 14.8033C10.1967 14.798 10.1684 14.8166 10.1387 14.8113C10.1189 14.8087 10.109 14.8246 10.0921 14.8219C10.0779 14.8219 10.0581 14.814 10.0454 14.8299H10.0412C10.0002 14.8246 9.96197 14.8459 9.92378 14.8405C9.89974 14.8352 9.88136 14.8512 9.85591 14.8512C9.83469 14.8485 9.80923 14.8432 9.78802 14.8591C9.78802 14.8591 9.77813 14.8591 9.77389 14.8591C9.67348 14.8591 9.57447 14.8751 9.47407 14.8698C9.41326 14.883 9.34962 14.8777 9.28598 14.8777C9.2577 14.8804 9.23225 14.8645 9.20255 14.8698C9.17426 14.8724 9.14881 14.8698 9.12194 14.8698C9.09224 14.8698 9.06254 14.8751 9.03708 14.8671C8.99607 14.8565 8.95364 14.8591 8.91405 14.8591C8.89566 14.8591 8.87869 14.8459 8.85606 14.8485C8.83909 14.8512 8.8207 14.8538 8.80515 14.8405C8.80373 14.8379 8.79384 14.8405 8.7896 14.8405C8.74293 14.8405 8.69625 14.8273 8.64958 14.8219C8.61989 14.8166 8.58878 14.8113 8.55908 14.806C8.50676 14.8007 8.45302 14.7901 8.40069 14.7781C8.36675 14.7675 8.33139 14.7622 8.29462 14.7542C8.23947 14.7383 8.18432 14.7263 8.12916 14.713C8.08815 14.7024 8.04855 14.6891 8.00896 14.6772C7.97077 14.6612 7.92976 14.6493 7.88875 14.6386C7.84632 14.628 7.80813 14.6081 7.76571 14.5948C7.72611 14.5842 7.69218 14.5669 7.65399 14.5536C7.61722 14.543 7.58327 14.5257 7.54792 14.5098C7.48994 14.4832 7.42914 14.4606 7.37398 14.4314C7.33014 14.4048 7.28347 14.3849 7.23822 14.3584C7.19579 14.3344 7.15336 14.3119 7.11093 14.288C7.04729 14.2521 6.98366 14.2149 6.92285 14.1737C6.85214 14.1299 6.78001 14.086 6.71496 14.0356C6.66829 13.9997 6.61738 13.9652 6.57495 13.924C6.55515 13.9054 6.52829 13.8961 6.51132 13.8748C6.49152 13.8536 6.47595 13.8363 6.44767 13.823C6.4406 13.8204 6.43494 13.8124 6.42787 13.8071C6.34726 13.7314 6.26241 13.657 6.18604 13.5786C6.13513 13.5242 6.08422 13.4697 6.03613 13.4126C5.99937 13.3741 5.96826 13.3302 5.93007 13.2904C5.89896 13.2572 5.87068 13.2173 5.8424 13.1814C5.80704 13.1323 5.77309 13.0858 5.73915 13.0367C5.70521 12.9875 5.67551 12.9357 5.64157 12.8892C5.59773 12.8241 5.55672 12.7537 5.52278 12.6846C5.51712 12.6714 5.49732 12.666 5.50157 12.6488C5.50581 12.6488 5.5143 12.6514 5.51571 12.6488C5.54541 12.6182 5.58077 12.5996 5.61471 12.5757C5.6741 12.5292 5.73491 12.488 5.79431 12.4429C5.87068 12.3884 5.94563 12.334 6.022 12.2768C6.0715 12.241 6.11675 12.2038 6.16907 12.1706C6.19311 12.1573 6.21008 12.1374 6.23271 12.1241C6.26948 12.1028 6.3006 12.0776 6.33313 12.051C6.35434 12.0351 6.37131 12.0178 6.39394 12.0072C6.41939 11.9939 6.43636 11.974 6.45899 11.9607C6.4901 11.9394 6.52263 11.9195 6.55233 11.8956C6.58768 11.8624 6.63152 11.8358 6.67112 11.8053C6.72627 11.7641 6.78142 11.7229 6.84082 11.6831C6.87476 11.6698 6.89739 11.6432 6.93133 11.6353Z" fill="#34A753"/>
<path d="M12.1764 13.904C12.1114 13.8548 12.0449 13.8057 11.977 13.7592C11.912 13.7153 11.8483 13.6715 11.7847 13.6237C11.731 13.5852 11.6744 13.548 11.6235 13.5068C11.5924 13.4802 11.5556 13.4603 11.5245 13.4364C11.4891 13.4098 11.4524 13.3819 11.4156 13.3554C11.3505 13.3089 11.2869 13.2597 11.2204 13.2159C11.1837 13.192 11.1483 13.1641 11.1115 13.1375C11.0776 13.1109 11.0479 13.0857 11.0126 13.0618C10.9786 13.0432 10.9447 13.0206 10.9164 12.9967C10.8782 12.9661 10.8287 12.9422 10.7976 12.9037C10.8146 12.8825 10.84 12.8732 10.8612 12.8599C10.8824 12.8466 10.9037 12.832 10.922 12.816C10.9503 12.7948 10.9772 12.7775 11.0026 12.7536C11.0536 12.7045 11.1045 12.658 11.1582 12.6088C11.1978 12.573 11.2303 12.5278 11.2643 12.4866C11.2883 12.46 11.3067 12.4322 11.3279 12.4043C11.3491 12.3777 11.3661 12.3498 11.3831 12.3219C11.417 12.2595 11.458 12.2023 11.4835 12.1346C11.5104 12.0722 11.54 12.0071 11.5613 11.942C11.5782 11.8902 11.5966 11.8384 11.6108 11.7839C11.6164 11.76 11.615 11.7348 11.6291 11.7109C11.6334 11.7029 11.6334 11.6896 11.6164 11.6923C11.6037 11.6949 11.5881 11.6923 11.5768 11.6923C10.8471 11.6923 10.1188 11.6923 9.38904 11.6923C9.37207 11.6923 9.35511 11.6923 9.33813 11.6923C9.33813 11.1729 9.33813 10.6575 9.33813 10.1421C10.6873 10.1421 12.0336 10.1421 13.3856 10.1421C13.3771 10.1926 13.4026 10.2377 13.3941 10.2856C13.4096 10.3161 13.3983 10.3506 13.4054 10.3812C13.4139 10.4117 13.4068 10.4463 13.4153 10.4755C13.4252 10.5127 13.4153 10.5525 13.4252 10.5858C13.4379 10.6389 13.4252 10.6907 13.4365 10.7425C13.4492 10.8036 13.4422 10.8687 13.445 10.9311C13.4478 10.9936 13.4436 11.0586 13.4464 11.1211C13.4478 11.1556 13.4322 11.1888 13.4365 11.2234C13.4379 11.2566 13.4422 11.2924 13.4351 11.323C13.4266 11.3589 13.4308 11.3947 13.4266 11.4293C13.4252 11.4465 13.4181 11.4625 13.4167 11.4824C13.4167 11.4997 13.4209 11.5169 13.4082 11.5355C13.3997 11.5501 13.4125 11.5754 13.4068 11.5913C13.3983 11.6139 13.4054 11.6365 13.3955 11.6604C13.387 11.6843 13.3912 11.7055 13.3856 11.7281C13.3686 11.7852 13.3644 11.845 13.3474 11.9021C13.3389 11.9354 13.3347 11.9752 13.3234 12.0084C13.3078 12.0655 13.2922 12.1253 13.2767 12.1798C13.2484 12.2754 13.2173 12.3697 13.1833 12.4627C13.1734 12.4933 13.1522 12.5198 13.1522 12.5504C13.1268 12.5862 13.1211 12.6314 13.1013 12.6673C13.0504 12.7762 12.9995 12.8825 12.9387 12.9834C12.9005 13.0512 12.8595 13.1216 12.8157 13.1827C12.7747 13.2398 12.7365 13.2969 12.6969 13.3514C12.6728 13.3819 12.6474 13.4138 12.6247 13.4443C12.595 13.4855 12.5611 13.5227 12.5314 13.5612C12.5144 13.5825 12.4932 13.6024 12.4734 13.6263C12.3886 13.7193 12.2938 13.8057 12.2019 13.8933C12.192 13.904 12.1849 13.904 12.1764 13.904Z" fill="#4285F3"/>
<path d="M6.93104 11.6349C6.8971 11.6428 6.87589 11.6694 6.84761 11.6906C6.78962 11.7292 6.73305 11.7717 6.6779 11.8128C6.6383 11.8407 6.59588 11.8673 6.55911 11.9032C6.53082 11.9271 6.49829 11.947 6.46577 11.9683C6.44172 11.9815 6.42759 12.0041 6.40072 12.0148C6.37667 12.0227 6.36112 12.0427 6.33991 12.0586C6.30596 12.0825 6.27485 12.1077 6.24091 12.1317C6.21687 12.1449 6.1999 12.1649 6.17728 12.1781C6.12636 12.2114 6.07969 12.2512 6.03019 12.2844C5.95665 12.3389 5.88029 12.3933 5.80393 12.4505C5.74453 12.4943 5.68088 12.5355 5.62431 12.5806C5.5932 12.6072 5.5536 12.6271 5.5239 12.6563C5.52249 12.659 5.51401 12.6563 5.50977 12.6563C5.4928 12.6404 5.49279 12.6152 5.48007 12.5992C5.46734 12.5806 5.45886 12.5634 5.45037 12.5448C5.43058 12.5062 5.40936 12.4664 5.39522 12.4279C5.37966 12.3867 5.3641 12.3468 5.34572 12.3057C5.31036 12.2273 5.27784 12.1449 5.25239 12.0612C5.22834 11.9855 5.20288 11.9111 5.1845 11.8328C5.16753 11.773 5.16046 11.7106 5.13501 11.6534C5.13642 11.6096 5.12086 11.5658 5.11096 11.5233C5.10247 11.4741 5.10248 11.4223 5.08268 11.3785C5.08268 11.3758 5.08268 11.3732 5.08268 11.3732C5.09116 11.3346 5.06853 11.2935 5.07277 11.2536C5.07702 11.2297 5.05722 11.2085 5.06288 11.1819C5.06712 11.1566 5.07136 11.1314 5.06288 11.1102C5.05015 11.0796 5.05439 11.0517 5.05439 11.0225C5.05439 10.895 5.05439 10.7701 5.05439 10.6413C5.05439 10.5815 5.07136 10.5244 5.06571 10.4646C5.07985 10.438 5.06995 10.4088 5.07561 10.3822C5.08127 10.3557 5.08409 10.3304 5.08409 10.3039C5.08409 10.2892 5.09965 10.2786 5.09541 10.264C5.094 10.252 5.08833 10.2361 5.10389 10.2255C5.10813 10.2228 5.10389 10.2122 5.1053 10.2069C5.10672 10.1909 5.10106 10.175 5.11378 10.1577C5.1251 10.1445 5.10813 10.1232 5.12652 10.1086C5.12652 10.0741 5.14066 10.0369 5.1449 10.0036C5.14914 9.96911 5.16187 9.93457 5.17035 9.89871C5.17884 9.86816 5.18733 9.83893 5.19582 9.80838C5.21137 9.75923 5.22551 9.71009 5.24107 9.66094C5.25097 9.62773 5.26229 9.59319 5.27218 9.56264C5.29057 9.51083 5.31178 9.46168 5.33299 9.40988C5.35845 9.34479 5.38815 9.28502 5.41784 9.22258C5.44047 9.17078 5.47017 9.12163 5.49138 9.06982C5.5027 9.04193 5.52108 9.03396 5.55219 9.03661C5.55078 9.06318 5.5522 9.08709 5.58897 9.09506C5.62008 9.12694 5.66109 9.14687 5.69503 9.17476C5.74452 9.21328 5.79261 9.25048 5.84352 9.28501C5.86756 9.30228 5.89018 9.31424 5.91423 9.33284C5.96231 9.37136 6.01322 9.41386 6.06696 9.44707C6.10515 9.47098 6.1405 9.50021 6.1801 9.52677C6.23526 9.56131 6.28758 9.60249 6.34132 9.64234C6.38092 9.67156 6.42476 9.69813 6.46011 9.73134C6.4884 9.7579 6.52093 9.77517 6.55063 9.80041C6.59305 9.83096 6.6383 9.86151 6.68214 9.89472C6.71325 9.91996 6.75002 9.93989 6.78396 9.96513C6.808 9.98107 6.82357 9.99966 6.84761 10.0143C6.87872 10.0329 6.90559 10.0568 6.93246 10.078C6.91831 10.1245 6.907 10.171 6.88862 10.2175C6.8773 10.2467 6.87306 10.2773 6.86317 10.3065C6.84761 10.3464 6.83912 10.3889 6.83346 10.4274C6.82922 10.4579 6.81366 10.4885 6.82073 10.5204C6.82497 10.539 6.80801 10.5536 6.81084 10.5735C6.81225 10.5908 6.82073 10.6107 6.80234 10.6266C6.79952 10.6293 6.80234 10.6333 6.80234 10.6373C6.808 10.6917 6.79104 10.7435 6.79104 10.7953C6.79104 10.8485 6.78538 10.9016 6.79245 10.9561C6.79952 10.9972 6.79244 11.0384 6.80376 11.0796C6.81649 11.1327 6.81225 11.1872 6.83205 11.239C6.84053 11.2589 6.83629 11.2828 6.84194 11.3068C6.85043 11.3426 6.86316 11.3798 6.87023 11.4143C6.87589 11.4555 6.89993 11.4927 6.90559 11.5339C6.907 11.5525 6.92115 11.5698 6.9268 11.587C6.92822 11.6043 6.92821 11.6176 6.93104 11.6349Z" fill="#FABB04"/>
</svg>
