<svg width="1440" height="461" viewBox="0 0 1440 461" fill="none" xmlns="http://www.w3.org/2000/svg">
<path d="M371.741 395.078C346.421 393.607 330.572 381.279 322.982 357.273C311.839 322.03 301.033 286.668 290.043 251.371C289.163 248.542 287.972 245.822 286.279 241.339C271.156 264.38 257.738 286.459 249.524 311.66C247.745 317.117 249.623 321.865 251.895 326.846C266.326 358.479 247.358 392.681 214.087 394.899C204.499 395.538 194.825 395.472 185.225 394.982C166.487 394.025 151.4 380.965 145.772 359.812C138.977 334.274 133.271 308.414 126.86 282.758C113.931 231.024 101.892 179.006 84.1661 128.76C82.8519 125.035 81.414 121.324 79.669 117.809C71.6043 101.565 58.695 96.9987 43.1684 104.914C39.0716 107.003 35.3104 110.649 31.0414 105.18C26.377 99.204 30.7396 95.2487 33.87 91.3889C55.1406 65.1624 99.7031 57.266 133.627 73.6142C161.983 87.2789 180.226 110.881 190.289 141.307C207.536 193.457 225.646 245.426 232.161 300.765C232.307 302.006 233.112 303.16 233.875 304.991C261.389 259.184 280.126 212.06 264.108 156.816C260.18 143.271 256.964 129.445 250.407 116.985C242.095 101.191 229.473 96.9779 214.8 104.954C210.101 107.509 205.763 110.601 201.791 104.316C197.941 98.2214 202.422 94.2946 205.722 90.5592C229.97 63.1061 276.237 56.8534 310.294 76.269C335.895 90.8633 352.938 113.477 362.021 142.115C378.357 193.627 396.971 244.557 402.708 299.181C402.92 301.194 404.096 303.094 404.992 305.501C448.646 233.994 457.604 163.476 403.728 91.8388C397.67 83.7826 389.485 77.5162 382.279 70.4119C385.916 65.0075 390.487 66.7197 394.341 66.7012C429.077 66.5343 463.822 67.0691 498.544 66.3306C510.836 66.0692 513.881 71.3397 512.702 82.9294C508.376 125.427 493.53 164.31 476.202 202.291C466.375 223.829 454.752 244.337 442.735 264.607C436.746 274.708 431.18 285.187 426.439 295.995C420.904 308.61 417.047 320.119 423.89 335.67C434.913 360.724 412.327 392.183 384.174 394.895C380.436 395.255 376.647 395.036 371.741 395.078Z" fill="#F9F4F3"/>
<path d="M1108.28 143.979C1114.83 166.992 1121.13 188.988 1128.48 214.664C1135.22 191.611 1141.32 171.909 1146.73 151.994C1162.13 95.21 1184.37 76.6726 1240.18 74.7528C1245.62 74.5657 1251.06 74.5553 1256.5 74.556C1272.24 74.5578 1273.27 75.3784 1273.28 91.4927C1273.35 186.304 1273.15 281.115 1273.51 375.925C1273.56 388.536 1269.9 393.12 1257.68 392.663C1234.27 391.787 1210.79 392.061 1187.35 392.538C1177.66 392.736 1174.41 389.28 1174.23 378.752C1173.72 348.621 1180.94 321.554 1200.69 299.468C1240.88 254.527 1253.31 199.25 1253.73 139.276C1250.48 150.171 1246.27 160.862 1244.16 171.998C1236.51 212.245 1215.86 241.007 1180.35 258.302C1156.05 270.138 1137.12 287.329 1135.68 318.598C1135.49 322.716 1133.32 325.122 1129.29 325.238C1124.69 325.371 1122.18 322.739 1121.94 318.08C1120.31 287.342 1101.39 270.548 1077.7 258.816C1042.88 241.574 1021.86 213.684 1013.75 174.023C1010.95 160.335 1006.03 147.134 1001 134.09C1004.16 191.87 1011.59 248.2 1051.32 293.031C1072.61 317.047 1084.33 344.736 1083.5 378.21C1083.26 388.079 1081.24 392.806 1070.93 392.578C1046.24 392.03 1021.53 392.094 996.83 392.512C987.46 392.67 984.333 388.603 984.344 379.116C984.46 282.092 984.409 185.067 984.25 88.0428C984.235 78.7993 987.015 74.3499 996.586 74.4248C1012.11 74.5461 1027.55 75.3298 1042.87 77.761C1078.81 83.4644 1098.2 107.92 1108.28 143.979Z" fill="#F9F4F3"/>
<path d="M722.385 258.665C722.378 228.557 722.287 199.778 722.385 171C722.589 110.921 751.75 74.4109 809.019 67.561C848.799 62.8031 888.525 66.951 925.616 85.2385C947.6 96.0775 965.403 111.327 970.636 138.444C975.47 163.496 967.711 183.703 950.004 200.1C936.659 212.458 919.921 218.473 900.744 226.458C922.663 238.912 936.782 255.11 945.714 276.313C960.221 310.747 964.326 347.691 969.495 384.396C970.192 389.341 968.137 391.967 963.411 392.194C936.252 393.501 909.898 390.809 886.646 373.938C860.446 354.928 857.835 327.087 861.454 297.084C862.405 289.199 863.77 281.372 864.86 273.505C867.925 251.374 859.043 239.617 836.185 235.718C831.306 234.885 825.23 235.738 825.782 227.729C826.262 220.773 832.07 221.769 836.358 221.122C872.812 215.624 885.973 189.557 868.342 155.457C850.851 121.629 824.668 100.037 787.131 96.7282C783.414 96.4005 779.601 96.7625 775.874 97.2046C767.469 98.202 760.16 101.663 757.428 110.759C754.468 120.611 757.438 129.419 765.056 135.638C771.984 141.294 779.389 146.431 787.033 150.945C810.966 165.078 821.814 186.555 821.628 215.34C821.292 267.138 821.212 318.944 821.712 370.739C821.833 383.264 818.384 387.995 806.08 387.536C782.26 386.646 758.385 386.956 734.542 387.382C725.306 387.548 722.128 383.966 722.224 374.22C722.597 336.148 722.382 298.07 722.385 258.665Z" fill="#F9F4F3"/>
<path d="M500.97 241.71C516.934 208.283 535.508 177.768 557.355 149.616C562.939 142.421 563.779 136.038 560.544 127.932C556.159 116.944 553.224 105.277 546.626 95.3485C543.151 90.1187 538.687 86.1205 532.854 84.3572C527.778 82.8229 524.32 80.1834 525.513 74.1103C526.708 68.0311 531.643 69.2031 535.679 69.0565C595.583 66.8797 654.601 108.325 675.243 169.151C692.256 219.288 701.305 271.495 706.55 324.459C708.201 341.129 710.618 357.736 713.295 374.262C715.133 385.607 711.599 391.018 700.478 390.788C679.148 390.345 657.814 389.915 636.482 389.945C628.504 389.956 625.505 386.298 624.647 378.214C622.407 357.11 618.544 336.298 613.777 315.641C611.495 305.75 606.733 301.56 597.045 302.173C581.309 303.167 565.435 301.159 547.637 303.733C557.195 333.744 570.409 359.86 587.958 383.482C584.287 389.367 579.223 387.147 575.042 387.171C541.966 387.362 508.888 387.302 475.812 387.248C458.298 387.219 457.371 385.446 459.62 367.397C465.181 322.773 481.214 282.104 500.97 241.71ZM539.292 227.432C535.937 244.794 539.835 261.759 541.791 278.832C542.716 286.904 546.927 289.946 554.588 289.681C567.547 289.233 580.537 289.256 593.498 289.65C602.635 289.928 605.411 287.076 602.531 277.089C593.257 244.933 584.841 212.502 575.747 180.286C573.887 173.693 573.135 166.417 567.698 159.946C551.507 178.817 541.758 200.063 539.292 227.432Z" fill="#F9F4F3"/>
<path d="M1354.62 197.105C1354.62 197.105 1354.17 170.295 1354.17 136.75C1354.17 103.205 1353.72 75.6339 1354.62 75.6279C1386.31 75.6279 1412 102.822 1412 136.367C1412 169.911 1386.31 197.105 1354.62 197.105Z" fill="#F9F4F3"/>
<path d="M1344.98 75.8952C1344.98 75.8952 1345.14 94.6505 1344.98 118.115C1344.82 141.579 1344.98 160.867 1344.4 160.867C1323.87 160.719 1307.36 141.577 1307.52 118.113C1307.68 94.6482 1324.45 75.7468 1344.98 75.8952Z" fill="#F9F4F3"/>
</svg>
