<svg width="36" height="22" viewBox="0 0 36 22" fill="none" xmlns="http://www.w3.org/2000/svg">
<path d="M31.9525 22H4.04745C1.81584 22 0 20.2931 0 18.197V3.80171C0 1.70559 1.81584 0 4.04745 0H31.9525C34.1827 0 36 1.70559 36 3.80171V18.197C36.0014 20.2931 34.1856 22 31.9525 22ZM4.04603 0.397174C2.04776 0.397174 0.422842 1.92344 0.422842 3.80039V18.197C0.422842 20.0726 2.04634 21.5988 4.04603 21.5988H31.9511C33.9494 21.5988 35.5743 20.0739 35.5743 18.197V3.80039C35.5743 1.92344 33.9508 0.397174 31.9511 0.397174H4.04603Z" fill="#969696"/>
<path d="M17.9858 15.7138C17.044 16.4019 15.9833 16.8217 14.7982 16.9439C12.8608 17.1485 11.1496 16.6424 9.68871 15.4229C8.70301 14.598 8.05955 13.5726 7.75691 12.3638C7.37932 10.8481 7.57871 9.39758 8.38905 8.04134C9.22767 6.63861 10.475 5.68486 12.1169 5.21197C13.7743 4.73643 15.3851 4.87325 16.9393 5.59055C17.307 5.75925 17.6592 5.96249 17.9717 6.21354C17.9703 6.26136 17.9335 6.28395 17.8982 6.30918C17.587 6.54164 17.3113 6.80731 17.0482 7.08759C16.8191 7.33466 16.6268 7.6083 16.4486 7.88725C16.351 8.03869 16.2605 8.1941 16.1785 8.3535C16.0102 8.67363 15.8843 9.01369 15.7769 9.3564C15.7005 9.59949 15.6453 9.8439 15.6043 10.0936C15.5407 10.4948 15.5435 10.8973 15.552 11.3024C15.5577 11.6186 15.6043 11.936 15.6864 12.2429C15.7924 12.6401 15.9126 13.0346 16.0951 13.4105C16.3355 13.906 16.6353 14.3656 17.0001 14.7853C17.2264 15.047 17.481 15.2888 17.7525 15.5119C17.8317 15.577 17.9222 15.6262 17.9802 15.7059C17.9802 15.7112 17.9802 15.7138 17.9858 15.7138Z" fill="#E9011B"/>
<path d="M17.9859 15.7139C17.9802 15.7139 17.9788 15.7086 17.9802 15.7059C18.116 15.6209 18.2292 15.5133 18.3508 15.4124C18.7948 15.0497 19.1696 14.6233 19.4807 14.1597C19.7211 13.7998 19.9106 13.4198 20.0719 13.0213C20.1963 12.7158 20.2925 12.3957 20.3505 12.0769C20.4438 11.5881 20.4834 11.0926 20.441 10.5918C20.4113 10.2292 20.3604 9.87317 20.2698 9.52249C20.1129 8.91411 19.8555 8.34425 19.5062 7.81159C19.304 7.5074 19.0791 7.21782 18.8288 6.94949C18.5756 6.67984 18.2871 6.44472 17.9944 6.21625C18.3197 5.9891 18.6577 5.77524 19.0197 5.60255C19.6165 5.31829 20.2402 5.11904 20.9006 5.01675C21.5568 4.91314 22.2158 4.9065 22.8734 4.99284C23.5452 5.07786 24.1858 5.26383 24.7953 5.54145C25.5802 5.89877 26.259 6.38627 26.8332 6.99997C27.4173 7.62296 27.8443 8.33229 28.1116 9.12399C28.4326 10.0658 28.5005 11.0262 28.3209 12.0025C28.1767 12.7915 27.8797 13.5248 27.4172 14.1943C26.9407 14.897 26.334 15.4841 25.6 15.9503C24.9466 16.3674 24.2353 16.6663 23.4702 16.8324C22.5283 17.0369 21.5822 17.0502 20.6305 16.8589C19.6999 16.669 18.8514 16.317 18.0948 15.775C18.0694 15.7471 18.0255 15.7338 17.9859 15.7139Z" fill="#F69E1C"/>
<path d="M17.9971 6.21772C18.2898 6.44752 18.5783 6.68264 18.83 6.95096C19.0846 7.21929 19.3081 7.50621 19.5089 7.81305C19.8596 8.34439 20.117 8.91425 20.2725 9.52263C20.363 9.87331 20.4154 10.2293 20.4451 10.5933C20.4847 11.0954 20.4465 11.5895 20.3546 12.0784C20.2923 12.3972 20.2004 12.7146 20.0745 13.0228C19.9133 13.42 19.7252 13.8012 19.4848 14.1585C19.1695 14.6288 18.8003 15.0512 18.3535 15.4138C18.2333 15.5148 18.1173 15.6184 17.9843 15.7047C17.925 15.6237 17.8344 15.5719 17.7552 15.5081C17.4823 15.285 17.2292 15.0432 17.0015 14.7815C16.6366 14.3618 16.3382 13.9022 16.0978 13.4067C15.9154 13.0308 15.7937 12.6363 15.6891 12.2391C15.6085 11.9349 15.5618 11.6188 15.5547 11.3C15.5463 10.8948 15.5462 10.4923 15.6085 10.0898C15.6452 9.84011 15.7018 9.59702 15.7796 9.3526C15.8871 9.00723 16.0129 8.67116 16.1826 8.35103C16.2661 8.19429 16.3538 8.03622 16.4514 7.88479C16.6324 7.60583 16.8247 7.33352 17.0524 7.08645C17.3112 6.80617 17.5912 6.5405 17.9009 6.30804C17.9363 6.28148 17.973 6.26022 17.9759 6.2124C17.9801 6.21373 17.99 6.21639 17.9971 6.21772Z" fill="#FE5F01"/>
</svg>
