<svg width="38" height="38" viewBox="0 0 38 38" fill="none" xmlns="http://www.w3.org/2000/svg">
<path d="M34.7429 6.24268H3.2572C1.60823 6.24268 0.271484 7.57943 0.271484 9.22839V28.7712C0.271484 30.4202 1.60823 31.757 3.2572 31.757H34.7429C36.3919 31.757 37.7286 30.4202 37.7286 28.7712V9.22839C37.7286 7.57943 36.3919 6.24268 34.7429 6.24268Z" fill="white" stroke="#D9D9D9" stroke-width="0.542857"/>
<path d="M16.6609 24.0361C16.216 24.0361 15.7727 24.0361 15.3263 24.0332C14.9874 24.0332 14.653 24.0332 14.3142 24.0332C14.0708 24.0332 13.9723 23.9115 14.0066 23.6797C14.1052 23.0058 14.2022 22.3349 14.2977 21.664C14.3933 21.0017 14.4873 20.3395 14.5844 19.6787C14.6769 19.0512 14.765 18.4238 14.8576 17.7963C14.9531 17.1312 15.0501 16.4675 15.1457 15.8024C15.2367 15.1792 15.3263 14.5547 15.4174 13.9301C15.4502 13.7026 15.4815 13.4765 15.5189 13.2476C15.5457 13.0824 15.6294 13.0128 15.801 13.0128C16.2325 13.0114 16.6639 13.0128 17.0923 13.0128C18.1522 13.0128 19.2121 12.9766 20.2676 13.0259C21.8156 13.0983 22.9039 13.8678 23.5294 15.2416C23.7638 15.7603 23.828 16.3124 23.7906 16.8761C23.7877 16.8993 23.7877 16.9225 23.7877 16.9471C23.7518 17.1297 23.7265 17.3196 23.6757 17.4964C23.3876 18.4846 22.7755 19.2251 21.85 19.7178C21.2947 20.0149 20.693 20.1395 20.0645 20.1424C19.336 20.1453 18.606 20.1424 17.8775 20.1424C17.8357 20.1424 17.7924 20.1337 17.7387 20.1584C17.5536 21.4423 17.367 22.7334 17.1774 24.0347C16.9983 24.0361 16.8311 24.0361 16.6609 24.0361Z" fill="#253B80"/>
<path d="M16.6607 24.0363C16.8294 24.0363 16.9981 24.0363 17.1802 24.0363C17.3668 22.7379 17.5534 21.4468 17.7415 20.1614C17.7953 20.1382 17.8371 20.1469 17.8804 20.1469C18.6089 20.1469 19.3389 20.1484 20.0674 20.1469C20.6959 20.144 21.2975 20.018 21.8528 19.7223C22.7798 19.2296 23.3904 18.4877 23.6785 17.5009C23.7293 17.3226 23.7547 17.1328 23.7905 16.9517C24.3816 17.3907 24.7578 17.9617 24.9146 18.6674C25.246 20.1614 24.3055 21.6714 22.7813 22.0989C22.4723 22.1844 22.1603 22.2293 21.8394 22.2293C21.2154 22.2264 20.5914 22.2293 19.9674 22.2293C19.93 22.2293 19.8882 22.2293 19.839 22.2293C19.8017 22.4843 19.7628 22.7336 19.7255 22.9828C19.6419 23.5436 19.5598 24.103 19.4777 24.6667C19.4508 24.8333 19.4284 25.0029 19.4016 25.171C19.3807 25.3217 19.2881 25.4057 19.1358 25.4057C18.3372 25.4057 17.537 25.4057 16.7369 25.4057C16.5413 25.4057 16.4368 25.2753 16.4681 25.0884C16.5338 24.7348 16.5995 24.387 16.6607 24.0363Z" fill="#179AD6"/>
</svg>
