<svg width="36" height="22" viewBox="0 0 36 22" fill="none" xmlns="http://www.w3.org/2000/svg">
<path d="M31.9524 22H4.04619C1.81449 22 0 20.2931 0 18.197V3.80171C0 1.70559 1.81449 0 4.04619 0H31.9524C34.1841 0 36 1.70559 36 3.80171V18.197C36 20.2931 34.1841 22 31.9524 22ZM4.04619 0.397174C2.04925 0.397174 0.422858 1.92344 0.422858 3.80039V18.197C0.422858 20.0726 2.04784 21.5988 4.04619 21.5988H31.9524C33.9522 21.5988 35.5757 20.0739 35.5757 18.197V3.80039C35.5757 1.92344 33.9522 0.397174 31.9524 0.397174H4.04619Z" fill="#969696"/>
<path d="M15.318 15.1482C14.8965 15.1482 14.4765 15.1482 14.0536 15.1455C13.7326 15.1455 13.4158 15.1455 13.0947 15.1455C12.8642 15.1455 12.7709 15.034 12.8034 14.8214C12.8967 14.2037 12.9887 13.5887 13.0792 12.9737C13.1697 12.3667 13.2588 11.7596 13.3507 11.1539C13.4384 10.5787 13.5219 10.0035 13.6095 9.42836C13.7001 8.81865 13.792 8.21027 13.8825 7.60056C13.9688 7.02938 14.0536 6.45686 14.1399 5.88435C14.171 5.6758 14.2007 5.46857 14.236 5.2587C14.2615 5.10726 14.3407 5.04351 14.5034 5.04351C14.9121 5.04218 15.3208 5.04351 15.7267 5.04351C16.7308 5.04351 17.7349 5.0103 18.7348 5.05546C20.2014 5.12188 21.2324 5.82723 21.825 7.0865C22.047 7.56204 22.1078 8.06814 22.0725 8.58486C22.0696 8.60612 22.0696 8.62737 22.0696 8.64995C22.0357 8.81733 22.0117 8.99134 21.9636 9.1534C21.6906 10.0593 21.1108 10.7381 20.2339 11.1897C19.7078 11.4621 19.1379 11.5763 18.5425 11.5789C17.8523 11.5816 17.1607 11.5789 16.4706 11.5789C16.431 11.5789 16.39 11.571 16.3391 11.5936C16.1637 12.7705 15.9869 13.954 15.8073 15.1469C15.6376 15.1482 15.4792 15.1482 15.318 15.1482Z" fill="#253B80"/>
<path d="M15.3178 15.1486C15.4776 15.1486 15.6374 15.1486 15.8099 15.1486C15.9867 13.9584 16.1635 12.7748 16.3417 11.5966C16.3926 11.5753 16.4322 11.5833 16.4732 11.5833C17.1634 11.5833 17.855 11.5846 18.5451 11.5833C19.1405 11.5806 19.7105 11.4651 20.2366 11.1941C21.1148 10.7425 21.6933 10.0623 21.9662 9.15774C22.0143 8.99435 22.0383 8.82034 22.0723 8.6543C22.6323 9.05678 22.9887 9.58015 23.1372 10.2271C23.4512 11.5966 22.5602 12.9807 21.1163 13.3726C20.8235 13.4509 20.5279 13.4921 20.2239 13.4921C19.6327 13.4895 19.0415 13.4921 18.4504 13.4921C18.415 13.4921 18.3754 13.4921 18.3288 13.4921C18.2934 13.7259 18.2566 13.9544 18.2213 14.1829C18.1421 14.6969 18.0643 15.2097 17.9865 15.7264C17.961 15.8791 17.9398 16.0346 17.9144 16.1887C17.8946 16.3268 17.8069 16.4038 17.6626 16.4038C16.906 16.4038 16.148 16.4038 15.3899 16.4038C15.2046 16.4038 15.1056 16.2843 15.1353 16.1129C15.1976 15.7888 15.2598 15.47 15.3178 15.1486Z" fill="#179AD6"/>
</svg>
