<svg width="38" height="38" viewBox="0 0 38 38" fill="none" xmlns="http://www.w3.org/2000/svg">
<g clip-path="url(#clip0_22_54)">
<path d="M17.7 6V32H10.5C9.2 32 8.4 30.9167 8.7 29.5083L13.1 8.49167C13.4 7.08333 15 6 16.3 6H17.7ZM30.3 6C29 6 27.4 7.08333 27.1 8.49167L22.6 29.5083C22.3 30.9167 23.1 32 24.4 32H19.5V6H30.3Z" fill="#005B9A"/>
<path d="M16.2999 6C14.9999 6 13.3999 7.19167 13.0999 8.49167L8.69986 29.5083C8.39986 30.9167 9.19986 32 10.4999 32H1.59985C0.799854 32 0.0998535 31.35 0.0998535 30.4833V7.73333C0.0998535 6.86667 0.799854 6 1.59985 6H16.2999Z" fill="#E9292D"/>
<path d="M30.2997 6C28.9997 6 27.3997 7.19167 27.0997 8.49167L22.6997 29.5083C22.3997 30.9167 23.1997 32 24.4997 32H9.99969H10.4997C9.19969 32 8.3997 30.9167 8.6997 29.5083L13.0997 8.49167C13.3997 7.08333 14.9997 6 16.2997 6H30.2997Z" fill="#0E73B9"/>
<path d="M38.0001 7.73333V30.4833C38.0001 31.35 37.4001 32 36.5001 32H24.4001C23.1001 32 22.3001 30.8083 22.6001 29.5083L27.1001 8.49167C27.4001 7.08333 29.0001 6 30.3001 6H36.5001C37.4001 6 38.0001 6.75833 38.0001 7.73333Z" fill="#059DA4"/>
<path d="M14.8779 20.782H15.0179C15.1579 20.782 15.2979 20.7061 15.2979 20.6303L15.7179 19.9478H16.9079L16.6979 20.327H18.0979L17.8879 21.0095H16.2079C15.9979 21.3128 15.7879 21.4645 15.5079 21.4645H14.6679L14.8779 20.782ZM14.6679 21.7678H17.6779L17.4679 22.5261H16.2779L16.0679 23.2845H17.2579L17.0479 24.0428H15.8579L15.5779 25.1803C15.5079 25.332 15.5779 25.4836 15.8579 25.4078H16.8379L16.6279 26.1661H14.7379C14.3879 26.1661 14.2479 25.9386 14.3879 25.4836L14.7379 24.0428H13.9679L14.1779 23.2845H14.9479L15.1579 22.5261H14.4579L14.6679 21.7678ZM19.4979 19.872V20.327C19.4979 20.327 20.0579 19.872 20.6179 19.872H22.5779L21.8079 22.7536C21.7379 23.057 21.4579 23.2845 21.0379 23.2845H18.7979L18.3079 25.332C18.3079 25.4078 18.3079 25.4836 18.4479 25.4836H18.8679L18.7279 26.0903H17.6079C17.1879 26.0903 17.0479 25.9386 17.1179 25.7111L18.5879 19.872H19.4979ZM21.1779 20.7061H19.4279L19.2179 21.4645C19.2179 21.4645 19.4979 21.237 19.9879 21.237H21.0379L21.1779 20.7061ZM20.5479 22.5261C20.6879 22.5261 20.7579 22.5261 20.7579 22.3745L20.8979 21.9953H19.1479L19.0079 22.602L20.5479 22.5261ZM19.3579 23.4361H20.3379V23.8911H20.6179C20.7579 23.8911 20.8279 23.8153 20.8279 23.7395L20.8979 23.4361H21.7379L21.5979 23.967C21.5279 24.3461 21.2479 24.4978 20.8279 24.5736H20.2679V25.4078C20.2679 25.5595 20.3379 25.6353 20.6179 25.6353H21.1079L20.9679 26.242H19.7779C19.4279 26.242 19.2879 26.0903 19.2879 25.7111L19.3579 23.4361ZM23.5579 20.782L23.7679 19.872H24.9579L24.8879 20.1753C24.8879 20.1753 25.4479 19.872 25.9379 19.872H27.4079L27.1979 20.782H26.9879L25.8679 24.9528H26.0779L25.8679 25.787H25.6579L25.5879 26.1661H24.3979L24.4679 25.787H22.2979L22.5079 24.9528H22.7179L23.8379 20.782H23.5579ZM24.8179 20.782L24.5379 21.9195C24.5379 21.9195 25.0279 21.692 25.4479 21.6161C25.5179 21.237 25.6579 20.782 25.6579 20.782H24.8179ZM24.3279 22.4503L24.0479 23.6636C24.0479 23.6636 24.6079 23.3603 25.0279 23.3603C25.1679 22.9053 25.2379 22.5261 25.2379 22.5261L24.3279 22.4503ZM24.5379 24.9528L24.7479 24.1186H23.9079L23.6979 24.9528H24.5379ZM27.4079 19.872H28.5279L28.5979 20.327C28.5979 20.4028 28.6679 20.4786 28.8079 20.4786H29.0179L28.8079 21.237H28.0379C27.7579 21.237 27.5479 21.1611 27.5479 20.8578L27.4079 19.872ZM27.0579 21.4645H30.6279L30.4179 22.2986H29.2279L29.0179 23.057H30.1379L29.9279 23.8911H28.6679L28.3879 24.3461H29.0179L29.1579 25.2561C29.1579 25.332 29.2279 25.4078 29.3679 25.4078H29.5779L29.3679 26.1661H28.6679C28.3179 26.1661 28.1079 26.0903 28.1079 25.787L27.9679 24.9528L27.4079 25.8628C27.2679 26.0903 27.0579 26.242 26.7779 26.242H25.7279L25.9379 25.4836H26.2879C26.4279 25.4836 26.4979 25.4078 26.6379 25.2561L27.4779 23.8911H26.4279L26.6379 23.057H27.8279L28.0379 22.2986H26.8479L27.0579 21.4645ZM7.31793 16.0045C7.17793 16.7628 6.89793 17.2936 6.40793 17.6728C5.91793 18.052 5.28793 18.2795 4.51793 18.2795C3.81793 18.2795 3.25793 18.052 2.97793 17.6728C2.76793 17.3695 2.62793 17.0661 2.62793 16.6111C2.62793 16.4595 2.62793 16.232 2.69793 16.0045L3.53793 11.7578H4.72793L3.95793 16.0045V16.3078C3.95793 16.5353 4.02793 16.687 4.09793 16.8386C4.23793 17.0661 4.44793 17.142 4.79793 17.142C5.14793 17.142 5.49793 17.0661 5.70793 16.8386C5.91793 16.6111 6.12793 16.3836 6.19793 16.0045L6.96793 11.7578H8.15793L7.31793 16.0045ZM8.43793 14.3361H9.27793L9.20793 14.867L9.34793 14.7153C9.62793 14.412 9.97793 14.2603 10.3979 14.2603C10.7479 14.2603 11.0279 14.412 11.1679 14.6395C11.3079 14.867 11.3779 15.1703 11.3079 15.6253L10.8179 18.2036H9.90793L10.3279 15.8528C10.3979 15.5495 10.3979 15.322 10.3279 15.2461C10.2579 15.0945 10.1179 15.0945 9.97793 15.0945C9.76793 15.0945 9.55793 15.1703 9.41793 15.322C9.27793 15.4736 9.13793 15.7011 9.13793 16.0045L8.71793 18.2036H7.80793L8.43793 14.3361ZM18.2379 14.3361H19.0779L19.0079 14.867L19.1479 14.7153C19.4279 14.412 19.7779 14.2603 20.1979 14.2603C20.5479 14.2603 20.8279 14.412 20.9679 14.6395C21.1079 14.867 21.1779 15.1703 21.1079 15.6253L20.6179 18.2036H19.7079L20.1279 15.777C20.1979 15.5495 20.1279 15.322 20.0579 15.2461C19.9879 15.0945 19.8479 15.0945 19.7079 15.0945C19.4979 15.0945 19.2879 15.1703 19.1479 15.322C19.0079 15.4736 18.8679 15.7011 18.8679 16.0045L18.4479 18.2036H17.5379L18.2379 14.3361ZM12.4279 14.3361H13.4079L12.6379 18.1278H11.6579L12.4279 14.3361ZM12.7779 12.8953H13.7579L13.5479 13.8053H12.5679L12.7779 12.8953ZM14.1779 17.8245C13.9679 17.597 13.8279 17.2178 13.8279 16.7628V16.5353C13.8279 16.4595 13.8279 16.3078 13.8979 16.232C14.0379 15.6253 14.2479 15.0945 14.5979 14.7911C14.9479 14.412 15.4379 14.2603 15.9279 14.2603C16.3479 14.2603 16.6979 14.412 16.9779 14.6395C17.1879 14.867 17.3279 15.2461 17.3279 15.7011V15.9286C17.3279 16.0045 17.3279 16.1561 17.2579 16.232C17.1179 16.8386 16.9079 17.2936 16.5579 17.6728C16.2079 18.052 15.7179 18.2036 15.2279 18.2036C14.8779 18.2036 14.5279 18.052 14.1779 17.8245ZM16.0679 17.0661C16.2079 16.8386 16.3479 16.5353 16.4179 16.1561V15.777C16.4179 15.5495 16.3479 15.3978 16.2779 15.2461C16.2164 15.172 16.1406 15.1133 16.056 15.074C15.9714 15.0347 15.8799 15.0158 15.7879 15.0186C15.5079 15.0186 15.2979 15.0945 15.1579 15.322C15.0179 15.5495 14.8779 15.8528 14.8079 16.232V16.5353C14.8079 16.7628 14.8779 16.9145 14.9479 17.0661C15.0879 17.2178 15.2279 17.2936 15.4379 17.2936C15.7179 17.3695 15.8579 17.2936 16.0679 17.0661ZM22.5779 11.9853H25.0979C25.5879 11.9853 25.9379 12.137 26.2179 12.3645C26.4979 12.592 26.5679 12.9711 26.5679 13.3503V13.6536C26.5679 13.7295 26.5679 13.8811 26.4979 13.957C26.4279 14.4878 26.1479 15.0186 25.7979 15.322C25.3779 15.7011 24.9579 15.8528 24.3979 15.8528H22.9979L22.5779 18.052H21.3879L22.5779 11.9853ZM23.1379 14.7911H24.2579C24.5379 14.7911 24.7479 14.7153 24.9579 14.5636C25.0979 14.412 25.2379 14.1845 25.3079 13.8811V13.5778C25.3079 13.3503 25.2379 13.1986 25.0979 13.1228C24.9579 13.047 24.7479 12.9711 24.3979 12.9711H23.4879L23.1379 14.7911ZM31.8179 18.8103C31.4679 19.6445 31.1179 20.1753 30.9079 20.4028C30.6979 20.6303 30.2779 21.1611 29.2979 21.1611L29.3679 20.4786C30.2079 20.1753 30.6279 18.962 30.9079 18.3553L30.6279 14.2603H31.8179L31.8879 16.8386L32.7979 14.3361H33.8479L31.8179 18.8103ZM28.8779 14.6395L28.4579 14.9428C28.0379 14.5636 27.6179 14.3361 26.9179 14.7153C25.9379 15.2461 25.0279 19.1895 27.8279 17.9003L27.9679 18.1278H29.0879L29.7879 14.5636L28.8779 14.6395ZM28.3179 16.6111C28.1079 17.2178 27.7579 17.5211 27.4079 17.4453C27.1279 17.2936 27.0579 16.7628 27.1979 16.1561C27.4079 15.5495 27.7579 15.2461 28.1079 15.322C28.3879 15.4736 28.4579 16.0045 28.3179 16.6111Z" fill="white"/>
</g>
<defs>
<clipPath id="clip0_22_54">
<rect width="38" height="26" fill="white" transform="translate(0 6)"/>
</clipPath>
</defs>
</svg>
