<svg width="36" height="22" viewBox="0 0 36 22" fill="none" xmlns="http://www.w3.org/2000/svg">
<path d="M31.9524 22H4.04619C1.81449 22 0 20.2931 0 18.197V3.80171C0 1.70559 1.81449 0 4.04619 0H31.9524C34.1841 0 36 1.70559 36 3.80171V18.197C36 20.2931 34.1841 22 31.9524 22ZM4.04477 0.397174C2.04783 0.397174 0.421456 1.92344 0.421456 3.80039V18.197C0.421456 20.0726 2.04642 21.5988 4.04477 21.5988H31.951C33.9508 21.5988 35.5743 20.0739 35.5743 18.197V3.80039C35.5743 1.92344 33.9508 0.397174 31.951 0.397174H4.04477Z" fill="#969696"/>
<path d="M30.1295 14.7855C30.0998 14.8041 30.0645 14.7961 30.0305 14.7961C29.4988 14.7961 28.9627 14.7961 28.4296 14.7961C28.3292 14.7961 28.3292 14.7961 28.3051 14.6952C28.2387 14.4016 28.1736 14.1094 28.1071 13.8185C28.0887 13.7308 28.0859 13.7308 27.9926 13.7308C27.2133 13.7308 26.4355 13.7308 25.6576 13.7308C25.5728 13.7308 25.5699 13.7308 25.5402 13.8092C25.4596 14.0217 25.3663 14.2289 25.2814 14.4401C25.239 14.5437 25.1938 14.6447 25.1726 14.7563C25.1669 14.7828 25.1528 14.7975 25.1231 14.7975C25.1061 14.7975 25.0877 14.7975 25.0707 14.7975C24.4428 14.7975 23.8134 14.7975 23.1869 14.7975C23.1629 14.7975 23.1374 14.8054 23.1148 14.7895C23.1091 14.7483 23.136 14.7138 23.1516 14.6806C23.3708 14.1877 23.5914 13.6976 23.8106 13.2074C24.0044 12.7691 24.1925 12.3254 24.3905 11.8897C24.9378 10.6902 25.4667 9.48143 26.007 8.27928C26.0183 8.25537 26.0296 8.23146 26.0395 8.20489C26.1993 7.86484 26.4807 7.6802 26.8753 7.67488C27.4127 7.66691 27.9487 7.67488 28.4847 7.6709C28.5583 7.6709 28.5625 7.71075 28.5724 7.75591C28.6446 8.08003 28.7167 8.4068 28.7874 8.73224C28.9939 9.65544 29.1961 10.5813 29.404 11.5032C29.6062 12.4038 29.8043 13.3071 30.0065 14.2077C30.0461 14.3843 30.0857 14.5637 30.1253 14.739C30.1309 14.751 30.138 14.7669 30.1295 14.7855ZM27.7649 12.2656C27.5655 11.3796 27.376 10.5016 27.1582 9.62622C26.8202 10.5029 26.4807 11.3823 26.1399 12.2656C26.683 12.2656 27.2147 12.2656 27.7649 12.2656Z" fill="#1D2A86"/>
<path d="M10.9704 12.4861C11.0086 12.4582 11.0143 12.4184 11.0284 12.3878C11.6748 10.8549 12.3197 9.32332 12.9674 7.79041C13.031 7.64297 12.9872 7.66688 13.1583 7.66688C13.7537 7.66555 14.3505 7.66688 14.9459 7.66688C14.9841 7.66688 15.0237 7.66024 15.0633 7.67219C15.0704 7.70939 15.0435 7.73994 15.0294 7.77314C14.1426 9.763 13.2531 11.7542 12.3649 13.7467C12.2193 14.0655 12.0764 14.387 11.9364 14.7097C11.9095 14.7695 11.8827 14.7948 11.8077 14.7948C11.1769 14.7921 10.5448 14.7948 9.91402 14.7948C9.82492 14.7948 9.82347 14.7948 9.79943 14.7097C9.70467 14.3617 9.60567 14.0177 9.51233 13.6723C9.41333 13.3123 9.31578 12.9537 9.21819 12.595C9.10081 12.1726 8.98202 11.7515 8.86605 11.3304C8.75857 10.9399 8.65388 10.5494 8.54499 10.1588C8.45447 9.82145 8.36254 9.48538 8.26919 9.14798C8.23242 9.01249 8.1971 8.877 8.12215 8.75346C8.04578 8.63391 7.93544 8.55421 7.80816 8.49045C7.36125 8.26729 6.88041 8.11984 6.3939 7.99631C6.24257 7.95779 6.08984 7.92591 5.9371 7.89004C5.86355 7.8741 5.86355 7.87144 5.87486 7.80636C5.90173 7.66555 5.90172 7.66555 6.05587 7.66555C7.09253 7.66555 8.13205 7.66555 9.17011 7.66555C9.26628 7.66555 9.3667 7.66688 9.46287 7.69212C9.84472 7.7851 10.0681 8.0242 10.1473 8.37887C10.2336 8.76143 10.3043 9.14798 10.3807 9.53187C10.5094 10.1774 10.6395 10.827 10.771 11.4712C10.8347 11.7927 10.8997 12.1115 10.9634 12.433C10.9619 12.4502 10.9648 12.4635 10.9704 12.4861Z" fill="#1D2A86"/>
<path d="M23.2234 9.36235C23.0381 9.28929 22.8613 9.2242 22.6817 9.17505C22.3126 9.07543 21.9364 9.0223 21.5517 9.02761C21.3438 9.03292 21.1374 9.05551 20.9408 9.12591C20.8078 9.1724 20.689 9.23882 20.5914 9.33844C20.4104 9.52574 20.409 9.75421 20.5829 9.94549C20.6749 10.0478 20.7909 10.1235 20.9097 10.1939C21.1557 10.3387 21.4174 10.4569 21.6719 10.5884C21.9392 10.7266 22.2023 10.8713 22.4427 11.052C22.7793 11.3084 23.0395 11.6179 23.147 12.023C23.2404 12.3764 23.2163 12.7284 23.1173 13.0764C22.9547 13.6449 22.5841 14.0673 22.0566 14.3768C21.6748 14.6027 21.2561 14.7368 20.8163 14.8179C20.1799 14.9321 19.542 14.9268 18.9014 14.8444C18.5054 14.7953 18.1151 14.7142 17.7431 14.5827C17.5762 14.523 17.6045 14.5442 17.6384 14.4034C17.7374 13.9571 17.8407 13.5081 17.9425 13.0618C17.9652 12.9635 17.9779 12.9608 18.0712 13.0126C18.1914 13.0857 18.3272 13.1242 18.4559 13.176C18.528 13.2039 18.6016 13.2252 18.6723 13.2517C18.8264 13.3089 18.9919 13.3248 19.1517 13.3553C19.4487 13.4098 19.7513 13.4258 20.0526 13.4151C20.276 13.4045 20.4967 13.366 20.7046 13.277C20.812 13.2331 20.9097 13.176 20.9889 13.095C21.1982 12.8904 21.2095 12.5969 21.0185 12.3764C20.9464 12.2953 20.8587 12.2289 20.7654 12.1691C20.5787 12.0443 20.3751 11.946 20.1714 11.853C19.8518 11.7055 19.542 11.5461 19.2606 11.3416C19.0089 11.1583 18.7897 10.9497 18.6313 10.6867C18.4488 10.3838 18.3866 10.0584 18.4248 9.71436C18.5153 8.90407 18.9975 8.3475 19.7358 7.96759C20.1431 7.75904 20.5844 7.64348 21.0426 7.58503C21.4485 7.53323 21.8529 7.52791 22.2603 7.56776C22.6859 7.60894 23.1032 7.70325 23.5077 7.83741C23.5642 7.85468 23.5628 7.88125 23.5529 7.92509C23.4779 8.25053 23.4044 8.57465 23.3295 8.90009C23.2941 9.04886 23.2616 9.19897 23.2234 9.36235Z" fill="#1D2A86"/>
<path d="M16.9187 11.7922C16.9272 11.8679 16.9144 11.9423 16.8904 12.0073C16.8395 12.1521 16.8112 12.3036 16.7815 12.4484C16.7264 12.726 16.6655 12.9983 16.6047 13.2733C16.4958 13.7554 16.3841 14.239 16.2766 14.7185C16.2653 14.7676 16.2512 14.7942 16.1904 14.7942C15.5723 14.7915 14.9557 14.7916 14.3377 14.7916C14.3306 14.7916 14.3249 14.7889 14.3108 14.7862C14.2966 14.7557 14.3094 14.7238 14.3179 14.6933C14.6672 13.155 15.0208 11.6128 15.3701 10.0733C15.4267 9.82355 15.4846 9.56851 15.5426 9.31878C15.5483 9.3148 15.5525 9.31081 15.5525 9.30284C15.5681 9.15407 15.6176 9.00928 15.6458 8.86449C15.6529 8.83261 15.6416 8.79276 15.6713 8.76221C15.7137 8.76752 15.7265 8.79541 15.7392 8.82862C15.8085 9.00928 15.875 9.1886 15.9443 9.36394C16.0319 9.60039 16.1225 9.83418 16.213 10.0653C16.3403 10.3934 16.4718 10.7228 16.5977 11.0523C16.6853 11.2768 16.7702 11.5012 16.8579 11.7271C16.8692 11.7576 16.8777 11.7922 16.9187 11.7922Z" fill="#1D2A86"/>
<path d="M16.9188 11.7918C16.8792 11.7891 16.8707 11.7586 16.8594 11.7294C16.7717 11.5062 16.6883 11.2804 16.5992 11.0546C16.4719 10.7265 16.3404 10.3984 16.2145 10.0689C16.124 9.83514 16.0335 9.60002 15.9458 9.36889C15.8765 9.18956 15.81 9.01024 15.7407 8.83224C15.728 8.80169 15.7153 8.76981 15.6729 8.76715C15.7351 8.49351 15.7945 8.21855 15.8567 7.94624C15.8709 7.87451 15.8935 7.80543 15.9034 7.73503C15.9133 7.67791 15.9415 7.6633 15.9939 7.66994C16.0052 7.67127 16.0165 7.66994 16.0264 7.66994C16.6048 7.66994 17.1819 7.66994 17.7617 7.66994C17.8833 7.66994 17.8833 7.66994 17.8579 7.78285C17.5849 8.97304 17.3162 10.1619 17.0461 11.3521C17.0178 11.4717 16.9909 11.5886 16.9655 11.7081C16.9542 11.74 16.9457 11.7705 16.9188 11.7918Z" fill="#1D2A86"/>
<path d="M15.5526 9.30469C15.5526 9.31266 15.5497 9.31664 15.5413 9.32063C15.5413 9.31266 15.5455 9.30734 15.5526 9.30469Z" fill="#1D2A86"/>
</svg>
